<svg width="108" height="20" viewBox="0 0 108 20" fill="none" xmlns="http://www.w3.org/2000/svg">
<path d="M10 2.5L11.9485 7.31811L17.1329 7.68237L13.1528 11.0244L14.4084 16.0676L10 13.315L5.59161 16.0676L6.84725 11.0244L2.86708 7.68237L8.05149 7.31811L10 2.5Z" fill="#FDC350"/>
<path d="M32 2.5L33.9485 7.31811L39.1329 7.68237L35.1528 11.0244L36.4084 16.0676L32 13.315L27.5916 16.0676L28.8472 11.0244L24.8671 7.68237L30.0515 7.31811L32 2.5Z" fill="#FDC350"/>
<path d="M54 2.5L55.9485 7.31811L61.1329 7.68237L57.1528 11.0244L58.4084 16.0676L54 13.315L49.5916 16.0676L50.8472 11.0244L46.8671 7.68237L52.0515 7.31811L54 2.5Z" fill="#FDC350"/>
<path d="M76 2.5L77.9485 7.31811L83.1329 7.68237L79.1528 11.0244L80.4084 16.0676L76 13.315L71.5916 16.0676L72.8472 11.0244L68.8671 7.68237L74.0515 7.31811L76 2.5Z" fill="#FDC350"/>
<path d="M98 2.5L99.9485 7.31811L105.133 7.68237L101.153 11.0244L102.408 16.0676L98 13.315L93.5916 16.0676L94.8472 11.0244L90.8671 7.68237L96.0515 7.31811L98 2.5Z" fill="#FDC350"/>
</svg>
