<svg width="293" height="584" viewBox="0 0 293 584" fill="none" xmlns="http://www.w3.org/2000/svg">
<path d="M219.762 0.377136C179.653 0.377136 146.836 33.1935 146.836 73.3024C146.836 113.411 179.653 146.228 219.762 146.228C259.871 146.228 292.687 113.411 292.687 73.3024C292.687 33.1935 259.871 0.377136 219.762 0.377136ZM110.374 182.69C49.8457 182.69 0.985779 231.55 0.985779 292.078H73.9111C73.9111 271.659 89.9547 255.616 110.374 255.616C130.793 255.616 146.836 271.659 146.836 292.078C146.836 312.497 73.9111 411.676 73.9111 474.392C73.9111 537.107 122.771 583.78 183.299 583.78C243.827 583.78 292.687 534.92 292.687 474.392H219.762C219.762 494.811 203.718 510.854 183.299 510.854C162.88 510.854 146.836 494.811 146.836 474.392C146.836 448.139 219.762 340.209 219.762 292.078C219.762 233.009 170.902 182.69 110.374 182.69Z" fill="white"/>
</svg>
