<svg width="202" height="147" viewBox="0 0 202 147" fill="none" xmlns="http://www.w3.org/2000/svg">
<path d="M8.078 146.592C6.05267 146.592 4.57333 146.125 3.64 145.192C2.70667 144.259 2.24 142.779 2.24 140.754V134.384C2.24 132.34 2.702 130.856 3.626 129.932C4.55933 129.008 6.034 128.546 8.05 128.546H11.438C13.1553 128.546 14.434 128.905 15.274 129.624C16.114 130.333 16.576 131.477 16.66 133.054C16.688 133.306 16.6367 133.497 16.506 133.628C16.3847 133.759 16.2027 133.824 15.96 133.824C15.4933 133.824 15.2367 133.577 15.19 133.082C15.1247 131.925 14.8073 131.127 14.238 130.688C13.6687 130.24 12.7353 130.016 11.438 130.016H8.05C6.97667 130.016 6.12267 130.156 5.488 130.436C4.85333 130.707 4.396 131.164 4.116 131.808C3.84533 132.443 3.71 133.301 3.71 134.384V140.754C3.71 141.837 3.85 142.695 4.13 143.33C4.41 143.965 4.86733 144.422 5.502 144.702C6.13667 144.982 6.99533 145.122 8.078 145.122H11.438C12.7353 145.122 13.6687 144.903 14.238 144.464C14.8073 144.016 15.1247 143.213 15.19 142.056C15.2367 141.561 15.4933 141.314 15.96 141.314C16.2027 141.314 16.3847 141.384 16.506 141.524C16.6367 141.655 16.688 141.841 16.66 142.084C16.576 143.661 16.114 144.809 15.274 145.528C14.434 146.237 13.1553 146.592 11.438 146.592H8.078ZM26.6991 146.592C24.6738 146.592 23.1944 146.125 22.2611 145.192C21.3278 144.259 20.8611 142.779 20.8611 140.754V134.37C20.8611 132.326 21.3278 130.842 22.2611 129.918C23.1944 128.985 24.6644 128.527 26.6711 128.546H30.0591C32.0844 128.546 33.5591 129.013 34.4831 129.946C35.4164 130.879 35.8831 132.359 35.8831 134.384V140.754C35.8831 142.779 35.4164 144.259 34.4831 145.192C33.5591 146.125 32.0844 146.592 30.0591 146.592H26.6991ZM26.6991 145.122H30.0591C31.1324 145.122 31.9864 144.982 32.6211 144.702C33.2558 144.422 33.7131 143.965 33.9931 143.33C34.2731 142.695 34.4131 141.837 34.4131 140.754V134.384C34.4131 133.311 34.2731 132.457 33.9931 131.822C33.7131 131.187 33.2558 130.73 32.6211 130.45C31.9864 130.161 31.1324 130.016 30.0591 130.016H26.6711C25.5978 130.007 24.7438 130.142 24.1091 130.422C23.4838 130.693 23.0311 131.15 22.7511 131.794C22.4711 132.429 22.3311 133.287 22.3311 134.37V140.754C22.3311 141.837 22.4711 142.695 22.7511 143.33C23.0311 143.965 23.4884 144.422 24.1231 144.702C24.7578 144.982 25.6164 145.122 26.6991 145.122ZM45.9843 146.592C45.667 146.592 45.4383 146.424 45.2983 146.088L38.0323 129.596C37.911 129.325 37.911 129.101 38.0323 128.924C38.163 128.747 38.3403 128.635 38.5643 128.588C38.947 128.495 39.213 128.635 39.3623 129.008L46.3623 144.884H45.8443L52.8023 129.008C52.9516 128.635 53.2223 128.495 53.6143 128.588C53.857 128.635 54.0343 128.747 54.1463 128.924C54.2583 129.101 54.2583 129.325 54.1463 129.596L46.8523 146.088C46.7123 146.424 46.4743 146.592 46.1383 146.592H45.9843ZM57.9655 146.592C57.4708 146.592 57.2235 146.345 57.2235 145.85V129.288C57.2235 128.793 57.4708 128.546 57.9655 128.546H68.4515C68.9461 128.546 69.1935 128.793 69.1935 129.288C69.1935 129.773 68.9461 130.016 68.4515 130.016H58.6935V136.722H65.1475C65.6421 136.722 65.8895 136.965 65.8895 137.45C65.8895 137.945 65.6421 138.192 65.1475 138.192H58.6935V145.122H68.4515C68.9461 145.122 69.1935 145.365 69.1935 145.85C69.1935 146.345 68.9461 146.592 68.4515 146.592H57.9655ZM85.1268 146.62C84.9214 146.741 84.7348 146.783 84.5668 146.746C84.3988 146.709 84.2494 146.592 84.1188 146.396L79.5268 139.088H74.3888V145.85C74.3888 146.345 74.1461 146.592 73.6608 146.592C73.1661 146.592 72.9188 146.345 72.9188 145.85V129.288C72.9188 128.793 73.1661 128.546 73.6608 128.546H80.2128C81.8088 128.546 83.0128 128.957 83.8248 129.778C84.6461 130.599 85.0568 131.808 85.0568 133.404V134.244C85.0568 135.653 84.7348 136.759 84.0908 137.562C83.4468 138.365 82.4948 138.855 81.2348 139.032L85.3648 145.612C85.6261 146.041 85.5468 146.377 85.1268 146.62ZM74.3888 137.618H80.2128C81.3888 137.618 82.2428 137.352 82.7748 136.82C83.3161 136.279 83.5868 135.42 83.5868 134.244V133.404C83.5868 132.219 83.3161 131.36 82.7748 130.828C82.2428 130.287 81.3888 130.016 80.2128 130.016H74.3888V137.618ZM101.178 146.564C99.5071 146.564 98.2658 146.195 97.4538 145.458C96.6511 144.711 96.2218 143.54 96.1658 141.944C96.1564 141.72 96.2171 141.543 96.3478 141.412C96.4878 141.272 96.6698 141.202 96.8938 141.202C97.1178 141.202 97.2951 141.267 97.4258 141.398C97.5564 141.529 97.6311 141.706 97.6498 141.93C97.6871 143.106 97.9671 143.927 98.4898 144.394C99.0124 144.861 99.9084 145.094 101.178 145.094H105.21C106.535 145.094 107.454 144.837 107.968 144.324C108.49 143.801 108.752 142.887 108.752 141.58C108.752 140.255 108.49 139.335 107.968 138.822C107.454 138.299 106.535 138.038 105.21 138.038H101.374C99.7311 138.038 98.5271 137.655 97.7618 136.89C96.9964 136.125 96.6138 134.925 96.6138 133.292C96.6138 131.659 96.9918 130.459 97.7478 129.694C98.5131 128.929 99.7124 128.546 101.346 128.546H105.266C106.834 128.546 107.996 128.896 108.752 129.596C109.517 130.296 109.928 131.397 109.984 132.9C110.002 133.124 109.942 133.306 109.802 133.446C109.671 133.577 109.489 133.642 109.256 133.642C109.041 133.642 108.868 133.577 108.738 133.446C108.607 133.315 108.532 133.138 108.514 132.914C108.476 131.841 108.215 131.089 107.73 130.66C107.244 130.231 106.423 130.016 105.266 130.016H101.346C100.123 130.016 99.2738 130.259 98.7978 130.744C98.3218 131.22 98.0838 132.069 98.0838 133.292C98.0838 134.515 98.3218 135.369 98.7978 135.854C99.2831 136.33 100.142 136.568 101.374 136.568H105.21C106.946 136.568 108.215 136.974 109.018 137.786C109.82 138.589 110.222 139.853 110.222 141.58C110.222 143.307 109.82 144.571 109.018 145.374C108.215 146.167 106.946 146.564 105.21 146.564H101.178ZM115.825 146.592C115.601 146.592 115.419 146.527 115.279 146.396C115.148 146.256 115.083 146.074 115.083 145.85V129.288C115.083 129.064 115.148 128.887 115.279 128.756C115.419 128.616 115.601 128.546 115.825 128.546C116.049 128.546 116.226 128.616 116.357 128.756C116.488 128.887 116.553 129.064 116.553 129.288V136.708H128.299V129.288C128.299 129.064 128.364 128.887 128.495 128.756C128.626 128.616 128.803 128.546 129.027 128.546C129.251 128.546 129.428 128.616 129.559 128.756C129.699 128.887 129.769 129.064 129.769 129.288V145.85C129.769 146.074 129.699 146.256 129.559 146.396C129.428 146.527 129.251 146.592 129.027 146.592C128.803 146.592 128.626 146.527 128.495 146.396C128.364 146.256 128.299 146.074 128.299 145.85V138.178H116.553V145.85C116.553 146.074 116.488 146.256 116.357 146.396C116.226 146.527 116.049 146.592 115.825 146.592ZM135.758 146.592C135.264 146.592 135.016 146.345 135.016 145.85V129.288C135.016 128.793 135.264 128.546 135.758 128.546H146.244C146.739 128.546 146.986 128.793 146.986 129.288C146.986 129.773 146.739 130.016 146.244 130.016H136.486V136.722H142.94C143.435 136.722 143.682 136.965 143.682 137.45C143.682 137.945 143.435 138.192 142.94 138.192H136.486V145.122H146.244C146.739 145.122 146.986 145.365 146.986 145.85C146.986 146.345 146.739 146.592 146.244 146.592H135.758ZM151.454 146.592C150.959 146.592 150.712 146.345 150.712 145.85V129.288C150.712 128.793 150.959 128.546 151.454 128.546H161.94C162.434 128.546 162.682 128.793 162.682 129.288C162.682 129.773 162.434 130.016 161.94 130.016H152.182V136.722H158.636C159.13 136.722 159.378 136.965 159.378 137.45C159.378 137.945 159.13 138.192 158.636 138.192H152.182V145.122H161.94C162.434 145.122 162.682 145.365 162.682 145.85C162.682 146.345 162.434 146.592 161.94 146.592H151.454ZM171.741 146.606C171.517 146.606 171.335 146.541 171.195 146.41C171.064 146.279 170.999 146.102 170.999 145.878V130.002H165.049C164.825 130.002 164.643 129.937 164.503 129.806C164.372 129.675 164.307 129.498 164.307 129.274C164.307 129.05 164.372 128.873 164.503 128.742C164.643 128.602 164.825 128.532 165.049 128.532H178.433C178.657 128.532 178.834 128.602 178.965 128.742C179.096 128.873 179.161 129.05 179.161 129.274C179.161 129.498 179.096 129.675 178.965 129.806C178.834 129.937 178.657 130.002 178.433 130.002H172.469V145.878C172.469 146.093 172.399 146.27 172.259 146.41C172.128 146.541 171.956 146.606 171.741 146.606ZM186.928 146.564C185.257 146.564 184.016 146.195 183.204 145.458C182.401 144.711 181.972 143.54 181.916 141.944C181.906 141.72 181.967 141.543 182.098 141.412C182.238 141.272 182.42 141.202 182.644 141.202C182.868 141.202 183.045 141.267 183.176 141.398C183.306 141.529 183.381 141.706 183.4 141.93C183.437 143.106 183.717 143.927 184.24 144.394C184.762 144.861 185.658 145.094 186.928 145.094H190.96C192.285 145.094 193.204 144.837 193.718 144.324C194.24 143.801 194.502 142.887 194.502 141.58C194.502 140.255 194.24 139.335 193.718 138.822C193.204 138.299 192.285 138.038 190.96 138.038H187.124C185.481 138.038 184.277 137.655 183.512 136.89C182.746 136.125 182.364 134.925 182.364 133.292C182.364 131.659 182.742 130.459 183.498 129.694C184.263 128.929 185.462 128.546 187.096 128.546H191.016C192.584 128.546 193.746 128.896 194.502 129.596C195.267 130.296 195.678 131.397 195.734 132.9C195.752 133.124 195.692 133.306 195.552 133.446C195.421 133.577 195.239 133.642 195.006 133.642C194.791 133.642 194.618 133.577 194.488 133.446C194.357 133.315 194.282 133.138 194.264 132.914C194.226 131.841 193.965 131.089 193.48 130.66C192.994 130.231 192.173 130.016 191.016 130.016H187.096C185.873 130.016 185.024 130.259 184.548 130.744C184.072 131.22 183.834 132.069 183.834 133.292C183.834 134.515 184.072 135.369 184.548 135.854C185.033 136.33 185.892 136.568 187.124 136.568H190.96C192.696 136.568 193.965 136.974 194.768 137.786C195.57 138.589 195.972 139.853 195.972 141.58C195.972 143.307 195.57 144.571 194.768 145.374C193.965 146.167 192.696 146.564 190.96 146.564H186.928Z" fill="#091227"/>
<path d="M92.6573 104.517C95.0083 104.517 96.7284 102.758 96.7284 100.543V3.97399C96.7284 1.76003 95.0083 0 92.6573 0C90.3641 0 88.6438 1.76003 88.6438 3.97399V100.543C88.6438 102.758 90.3641 104.517 92.6573 104.517ZM126.028 93.163C128.321 93.163 130.041 91.3463 130.041 89.1323V15.3851C130.041 13.1711 128.321 11.3544 126.028 11.3544C123.734 11.3544 121.957 13.1711 121.957 15.3851V89.1323C121.957 91.3463 123.734 93.163 126.028 93.163ZM76.0297 83.9658C78.3232 83.9658 80.0433 82.206 80.0433 79.9918V24.5256C80.0433 22.3114 78.3232 20.5516 76.0297 20.5516C73.6788 20.5516 71.9587 22.3114 71.9587 24.5256V79.9918C71.9587 82.206 73.6788 83.9658 76.0297 83.9658ZM109.343 77.8346C111.636 77.8346 113.413 76.0745 113.413 73.8606V30.6568C113.413 28.4429 111.636 26.6828 109.343 26.6828C107.049 26.6828 105.329 28.4429 105.329 30.6568V73.8606C105.329 76.0745 107.049 77.8346 109.343 77.8346ZM142.713 67.6724C145.006 67.6724 146.726 65.8557 146.726 63.6415V40.8759C146.726 38.6617 145.006 36.845 142.713 36.845C140.362 36.845 138.642 38.6617 138.642 40.8759V63.6415C138.642 65.8557 140.362 67.6724 142.713 67.6724ZM59.3446 63.1873C61.6381 63.1873 63.3582 61.4273 63.3582 59.2133V45.3041C63.3582 43.0901 61.6381 41.3301 59.3446 41.3301C56.9937 41.3301 55.2736 43.0901 55.2736 45.3041V59.2133C55.2736 61.4273 56.9937 63.1873 59.3446 63.1873Z" fill="#091227"/>
</svg>
