<svg width="125" height="48" viewBox="0 0 125 48" fill="none" xmlns="http://www.w3.org/2000/svg">
<path d="M60.193 20.3052C58.891 20.3052 57.94 20.0052 57.34 19.4052C56.74 18.8052 56.44 17.8542 56.44 16.5522V12.4572C56.44 11.1432 56.737 10.1892 57.331 9.59518C57.931 9.00118 58.879 8.70418 60.175 8.70418H62.353C63.457 8.70418 64.279 8.93518 64.819 9.39718C65.359 9.85318 65.656 10.5882 65.71 11.6022C65.728 11.7642 65.695 11.8872 65.611 11.9712C65.533 12.0552 65.416 12.0972 65.26 12.0972C64.96 12.0972 64.795 11.9382 64.765 11.6202C64.723 10.8762 64.519 10.3632 64.153 10.0812C63.787 9.79318 63.187 9.64918 62.353 9.64918H60.175C59.485 9.64918 58.936 9.73918 58.528 9.91918C58.12 10.0932 57.826 10.3872 57.646 10.8012C57.472 11.2092 57.385 11.7612 57.385 12.4572V16.5522C57.385 17.2482 57.475 17.8002 57.655 18.2082C57.835 18.6162 58.129 18.9102 58.537 19.0902C58.945 19.2702 59.497 19.3602 60.193 19.3602H62.353C63.187 19.3602 63.787 19.2192 64.153 18.9372C64.519 18.6492 64.723 18.1332 64.765 17.3892C64.795 17.0712 64.96 16.9122 65.26 16.9122C65.416 16.9122 65.533 16.9572 65.611 17.0472C65.695 17.1312 65.728 17.2512 65.71 17.4072C65.656 18.4212 65.359 19.1592 64.819 19.6212C64.279 20.0772 63.457 20.3052 62.353 20.3052H60.193ZM72.1637 20.3052C70.8617 20.3052 69.9107 20.0052 69.3107 19.4052C68.7107 18.8052 68.4107 17.8542 68.4107 16.5522V12.4482C68.4107 11.1342 68.7107 10.1802 69.3107 9.58617C69.9107 8.98618 70.8557 8.69218 72.1457 8.70418H74.3237C75.6257 8.70418 76.5737 9.00418 77.1677 9.60418C77.7677 10.2042 78.0677 11.1552 78.0677 12.4572V16.5522C78.0677 17.8542 77.7677 18.8052 77.1677 19.4052C76.5737 20.0052 75.6257 20.3052 74.3237 20.3052H72.1637ZM72.1637 19.3602H74.3237C75.0137 19.3602 75.5627 19.2702 75.9707 19.0902C76.3787 18.9102 76.6727 18.6162 76.8527 18.2082C77.0327 17.8002 77.1227 17.2482 77.1227 16.5522V12.4572C77.1227 11.7672 77.0327 11.2182 76.8527 10.8102C76.6727 10.4022 76.3787 10.1082 75.9707 9.92818C75.5627 9.74218 75.0137 9.64918 74.3237 9.64918H72.1457C71.4557 9.64318 70.9067 9.73018 70.4987 9.91017C70.0967 10.0842 69.8057 10.3782 69.6257 10.7922C69.4457 11.2002 69.3557 11.7522 69.3557 12.4482V16.5522C69.3557 17.2482 69.4457 17.8002 69.6257 18.2082C69.8057 18.6162 70.0997 18.9102 70.5077 19.0902C70.9157 19.2702 71.4677 19.3602 72.1637 19.3602ZM84.5613 20.3052C84.3573 20.3052 84.2103 20.1972 84.1203 19.9812L79.4493 9.37917C79.3713 9.20518 79.3713 9.06118 79.4493 8.94718C79.5333 8.83318 79.6473 8.76118 79.7913 8.73118C80.0373 8.67118 80.2083 8.76118 80.3043 9.00118L84.8043 19.2072H84.4713L88.9443 9.00118C89.0403 8.76118 89.2143 8.67118 89.4663 8.73118C89.6223 8.76118 89.7363 8.83318 89.8083 8.94718C89.8803 9.06118 89.8803 9.20518 89.8083 9.37917L85.1193 19.9812C85.0293 20.1972 84.8763 20.3052 84.6603 20.3052H84.5613ZM92.2635 20.3052C91.9455 20.3052 91.7865 20.1462 91.7865 19.8282V9.18118C91.7865 8.86318 91.9455 8.70418 92.2635 8.70418H99.0045C99.3225 8.70418 99.4815 8.86318 99.4815 9.18118C99.4815 9.49318 99.3225 9.64918 99.0045 9.64918H92.7315V13.9602H96.8805C97.1985 13.9602 97.3575 14.1162 97.3575 14.4282C97.3575 14.7462 97.1985 14.9052 96.8805 14.9052H92.7315V19.3602H99.0045C99.3225 19.3602 99.4815 19.5162 99.4815 19.8282C99.4815 20.1462 99.3225 20.3052 99.0045 20.3052H92.2635ZM109.724 20.3232C109.592 20.4012 109.472 20.4282 109.364 20.4042C109.256 20.3802 109.16 20.3052 109.076 20.1792L106.124 15.4812H102.821V19.8282C102.821 20.1462 102.665 20.3052 102.353 20.3052C102.035 20.3052 101.876 20.1462 101.876 19.8282V9.18118C101.876 8.86318 102.035 8.70418 102.353 8.70418H106.565C107.591 8.70418 108.365 8.96818 108.887 9.49617C109.415 10.0242 109.679 10.8012 109.679 11.8272V12.3672C109.679 13.2732 109.472 13.9842 109.058 14.5002C108.644 15.0162 108.032 15.3312 107.222 15.4452L109.877 19.6752C110.045 19.9512 109.994 20.1672 109.724 20.3232ZM102.821 14.5362H106.565C107.321 14.5362 107.87 14.3652 108.212 14.0232C108.56 13.6752 108.734 13.1232 108.734 12.3672V11.8272C108.734 11.0652 108.56 10.5132 108.212 10.1712C107.87 9.82318 107.321 9.64918 106.565 9.64918H102.821V14.5362ZM59.662 41.2872C58.588 41.2872 57.79 41.0502 57.268 40.5762C56.752 40.0962 56.476 39.3432 56.44 38.3172C56.434 38.1732 56.473 38.0592 56.557 37.9752C56.647 37.8852 56.764 37.8402 56.908 37.8402C57.052 37.8402 57.166 37.8822 57.25 37.9662C57.334 38.0502 57.382 38.1642 57.394 38.3082C57.418 39.0642 57.598 39.5922 57.934 39.8922C58.27 40.1922 58.846 40.3422 59.662 40.3422H62.254C63.106 40.3422 63.697 40.1772 64.027 39.8472C64.363 39.5112 64.531 38.9232 64.531 38.0832C64.531 37.2312 64.363 36.6402 64.027 36.3102C63.697 35.9742 63.106 35.8062 62.254 35.8062H59.788C58.732 35.8062 57.958 35.5602 57.466 35.0682C56.974 34.5762 56.728 33.8052 56.728 32.7552C56.728 31.7052 56.971 30.9342 57.457 30.4422C57.949 29.9502 58.72 29.7042 59.77 29.7042H62.29C63.298 29.7042 64.045 29.9292 64.531 30.3792C65.023 30.8292 65.287 31.5372 65.323 32.5032C65.335 32.6472 65.296 32.7642 65.206 32.8542C65.122 32.9382 65.005 32.9802 64.855 32.9802C64.717 32.9802 64.606 32.9382 64.522 32.8542C64.438 32.7702 64.39 32.6562 64.378 32.5122C64.354 31.8222 64.186 31.3392 63.874 31.0632C63.562 30.7872 63.034 30.6492 62.29 30.6492H59.77C58.984 30.6492 58.438 30.8052 58.132 31.1172C57.826 31.4232 57.673 31.9692 57.673 32.7552C57.673 33.5412 57.826 34.0902 58.132 34.4022C58.444 34.7082 58.996 34.8612 59.788 34.8612H62.254C63.37 34.8612 64.186 35.1222 64.702 35.6442C65.218 36.1602 65.476 36.9732 65.476 38.0832C65.476 39.1932 65.218 40.0062 64.702 40.5222C64.186 41.0322 63.37 41.2872 62.254 41.2872H59.662ZM69.078 41.3052C68.934 41.3052 68.817 41.2632 68.727 41.1792C68.643 41.0892 68.601 40.9722 68.601 40.8282V30.1812C68.601 30.0372 68.643 29.9232 68.727 29.8392C68.817 29.7492 68.934 29.7042 69.078 29.7042C69.222 29.7042 69.336 29.7492 69.42 29.8392C69.504 29.9232 69.546 30.0372 69.546 30.1812V34.9512H77.097V30.1812C77.097 30.0372 77.139 29.9232 77.223 29.8392C77.307 29.7492 77.421 29.7042 77.565 29.7042C77.709 29.7042 77.823 29.7492 77.907 29.8392C77.997 29.9232 78.042 30.0372 78.042 30.1812V40.8282C78.042 40.9722 77.997 41.0892 77.907 41.1792C77.823 41.2632 77.709 41.3052 77.565 41.3052C77.421 41.3052 77.307 41.2632 77.223 41.1792C77.139 41.0892 77.097 40.9722 77.097 40.8282V35.8962H69.546V40.8282C69.546 40.9722 69.504 41.0892 69.42 41.1792C69.336 41.2632 69.222 41.3052 69.078 41.3052ZM81.8924 41.3052C81.5744 41.3052 81.4154 41.1462 81.4154 40.8282V30.1812C81.4154 29.8632 81.5744 29.7042 81.8924 29.7042H88.6334C88.9514 29.7042 89.1104 29.8632 89.1104 30.1812C89.1104 30.4932 88.9514 30.6492 88.6334 30.6492H82.3604V34.9602H86.5094C86.8274 34.9602 86.9864 35.1162 86.9864 35.4282C86.9864 35.7462 86.8274 35.9052 86.5094 35.9052H82.3604V40.3602H88.6334C88.9514 40.3602 89.1104 40.5162 89.1104 40.8282C89.1104 41.1462 88.9514 41.3052 88.6334 41.3052H81.8924ZM91.9823 41.3052C91.6643 41.3052 91.5053 41.1462 91.5053 40.8282V30.1812C91.5053 29.8632 91.6643 29.7042 91.9823 29.7042H98.7233C99.0413 29.7042 99.2003 29.8632 99.2003 30.1812C99.2003 30.4932 99.0413 30.6492 98.7233 30.6492H92.4503V34.9602H96.5993C96.9173 34.9602 97.0763 35.1162 97.0763 35.4282C97.0763 35.7462 96.9173 35.9052 96.5993 35.9052H92.4503V40.3602H98.7233C99.0413 40.3602 99.2003 40.5162 99.2003 40.8282C99.2003 41.1462 99.0413 41.3052 98.7233 41.3052H91.9823ZM105.024 41.3142C104.88 41.3142 104.763 41.2722 104.673 41.1882C104.589 41.1042 104.547 40.9902 104.547 40.8462V30.6402H100.722C100.578 30.6402 100.461 30.5982 100.371 30.5142C100.287 30.4302 100.245 30.3162 100.245 30.1722C100.245 30.0282 100.287 29.9142 100.371 29.8302C100.461 29.7402 100.578 29.6952 100.722 29.6952H109.326C109.47 29.6952 109.584 29.7402 109.668 29.8302C109.752 29.9142 109.794 30.0282 109.794 30.1722C109.794 30.3162 109.752 30.4302 109.668 30.5142C109.584 30.5982 109.47 30.6402 109.326 30.6402H105.492V40.8462C105.492 40.9842 105.447 41.0982 105.357 41.1882C105.273 41.2722 105.162 41.3142 105.024 41.3142ZM114.787 41.2872C113.713 41.2872 112.915 41.0502 112.393 40.5762C111.877 40.0962 111.601 39.3432 111.565 38.3172C111.559 38.1732 111.598 38.0592 111.682 37.9752C111.772 37.8852 111.889 37.8402 112.033 37.8402C112.177 37.8402 112.291 37.8822 112.375 37.9662C112.459 38.0502 112.507 38.1642 112.519 38.3082C112.543 39.0642 112.723 39.5922 113.059 39.8922C113.395 40.1922 113.971 40.3422 114.787 40.3422H117.379C118.231 40.3422 118.822 40.1772 119.152 39.8472C119.488 39.5112 119.656 38.9232 119.656 38.0832C119.656 37.2312 119.488 36.6402 119.152 36.3102C118.822 35.9742 118.231 35.8062 117.379 35.8062H114.913C113.857 35.8062 113.083 35.5602 112.591 35.0682C112.099 34.5762 111.853 33.8052 111.853 32.7552C111.853 31.7052 112.096 30.9342 112.582 30.4422C113.074 29.9502 113.845 29.7042 114.895 29.7042H117.415C118.423 29.7042 119.17 29.9292 119.656 30.3792C120.148 30.8292 120.412 31.5372 120.448 32.5032C120.46 32.6472 120.421 32.7642 120.331 32.8542C120.247 32.9382 120.13 32.9802 119.98 32.9802C119.842 32.9802 119.731 32.9382 119.647 32.8542C119.563 32.7702 119.515 32.6562 119.503 32.5122C119.479 31.8222 119.311 31.3392 118.999 31.0632C118.687 30.7872 118.159 30.6492 117.415 30.6492H114.895C114.109 30.6492 113.563 30.8052 113.257 31.1172C112.951 31.4232 112.798 31.9692 112.798 32.7552C112.798 33.5412 112.951 34.0902 113.257 34.4022C113.569 34.7082 114.121 34.8612 114.913 34.8612H117.379C118.495 34.8612 119.311 35.1222 119.827 35.6442C120.343 36.1602 120.601 36.9732 120.601 38.0832C120.601 39.1932 120.343 40.0062 119.827 40.5222C119.311 41.0322 118.495 41.2872 117.379 41.2872H114.787Z" fill="white"/>
<path d="M16.7598 47.1053C17.8138 47.1053 18.5849 46.3122 18.5849 45.3142V1.79105C18.5849 0.793232 17.8138 0 16.7598 0C15.7317 0 14.9605 0.793232 14.9605 1.79105V45.3142C14.9605 46.3122 15.7317 47.1053 16.7598 47.1053ZM31.7204 41.9879C32.7486 41.9879 33.5198 41.1691 33.5198 40.1713V6.93396C33.5198 5.93614 32.7486 5.11736 31.7204 5.11736C30.6922 5.11736 29.8953 5.93614 29.8953 6.93396V40.1713C29.8953 41.1691 30.6922 41.9879 31.7204 41.9879ZM9.30536 37.8428C10.3336 37.8428 11.1047 37.0497 11.1047 36.0518V11.0535C11.1047 10.0556 10.3336 9.26245 9.30536 9.26245C8.25137 9.26245 7.48024 10.0556 7.48024 11.0535V36.0518C7.48024 37.0497 8.25137 37.8428 9.30536 37.8428ZM24.2402 35.0795C25.2683 35.0795 26.0652 34.2863 26.0652 33.2885V13.8168C26.0652 12.819 25.2683 12.0258 24.2402 12.0258C23.212 12.0258 22.4407 12.819 22.4407 13.8168V33.2885C22.4407 34.2863 23.212 35.0795 24.2402 35.0795ZM39.2007 30.4995C40.2289 30.4995 41 29.6807 41 28.6828V18.4225C41 17.4246 40.2289 16.6058 39.2007 16.6058C38.1467 16.6058 37.3755 17.4246 37.3755 18.4225V28.6828C37.3755 29.6807 38.1467 30.4995 39.2007 30.4995ZM1.82512 28.4781C2.85333 28.4781 3.62447 27.6848 3.62447 26.687V20.4182C3.62447 19.4204 2.85333 18.6272 1.82512 18.6272C0.771132 18.6272 0 19.4204 0 20.4182V26.687C0 27.6848 0.771132 28.4781 1.82512 28.4781Z" fill="white"/>
</svg>
