<svg width="550" height="511" viewBox="0 0 550 511" fill="none" xmlns="http://www.w3.org/2000/svg">
<path d="M222.424 61.9523C221.769 52.1344 205.788 34.4077 197.879 26.7716C188.062 19.5718 141.426 69.5884 119.336 95.4966L114.427 133.95C109.846 139.186 112.518 156.858 114.427 165.04C119.664 170.93 116.609 199.675 114.427 213.311C109.845 217.892 112.518 258.309 114.427 277.945C109.845 296.926 144.153 309.308 161.88 313.126C211.624 332.761 231.151 293.49 234.696 271.4L241.241 283.672C241.241 292.835 240.696 295.126 245.332 295.126L247.637 304.944C251.564 310.18 257.455 340.397 259.909 354.852C250.746 364.015 288.149 422.486 306.693 450.576C301.457 455.157 297.967 492.302 296.876 510.301H343.51C350.71 504.41 353.601 485.484 354.146 476.757C358.074 471.52 352.51 445.667 349.237 433.394C350.547 424.886 321.42 352.943 306.693 318.035C306.693 293.817 284.876 255.037 273.967 238.674C269.386 219.038 221.333 216.856 197.879 218.22L192.97 201.857C189.043 179.603 214.788 170.767 228.151 169.13C252.368 177.639 249.696 156.313 245.332 144.586C263.659 144.586 250.241 133.132 241.241 127.405C256.295 114.314 247.514 109.405 241.241 108.587C256.295 102.042 238.787 86.7696 228.151 79.9516L222.424 61.9523Z" fill="#F9844A" stroke="#D05010" stroke-width="5.02731"/>
<path d="M215.878 60.3159L192.152 67.6792V72.5882L215.878 65.2248C221.114 95.3329 226.787 97.951 228.969 95.4965C232.896 92.8784 230.605 78.0425 228.969 70.9519L224.06 60.3159H215.878Z" fill="white" fill-opacity="0.4" stroke="black" stroke-opacity="0.71" stroke-width="5.02731"/>
<path d="M208.515 79.1334H215.879" stroke="black" stroke-width="10.0546"/>
<path d="M234.694 216.583C238.621 213.965 230.876 183.857 226.513 169.13C223.894 167.167 206.878 175.948 198.697 180.585C194.116 185.166 194.606 192.312 195.424 195.311C192.806 204.475 215.059 246.037 226.513 265.673C229.785 251.273 216.422 226.947 209.332 216.583C205.404 206.766 207.695 188.493 209.332 180.585V187.13C208.022 195.639 214.24 211.947 217.513 219.038C221.44 219.038 247.512 253.946 260.057 271.4C262.021 262.891 238.512 234.583 226.513 221.492L217.513 176.494L226.513 213.311C229.785 210.693 225.149 186.584 222.422 174.858L234.694 216.583Z" fill="black" stroke="black" stroke-width="5.02731"/>
<path d="M180.697 5.49947C102.154 -12.1727 35.0666 68.4973 64.5192 102.042C59.2822 105.969 74.8828 129.314 83.3377 140.495C75.4834 164.712 76.2471 192.039 77.6106 202.675C107.719 202.02 112.519 140.768 111.155 110.223C121.627 107.605 173.335 47.4982 197.879 17.7719L190.516 10.4085L180.697 17.7719L173.335 10.4085L180.697 5.49947Z" fill="#277DA1" stroke="#1E6482" stroke-width="5.02731"/>
<path d="M113.609 373.669C116.881 384.796 109.518 412.122 105.427 424.395C109.354 422.431 132.259 434.38 142.895 440.925C165.804 448.125 174.804 467.924 176.44 476.924C182.33 476.269 195.697 498.029 201.97 508.664H19.5213C12.3215 497.538 38.3388 462.03 52.2475 445.667L34.2481 426.849C21.1576 420.958 17.3395 403.123 17.0668 394.941C20.994 384.469 11.6121 330.034 6.43029 304.126C-2.73304 282.527 8.61203 251.491 15.43 238.674C16.739 223.619 56.8831 213.856 76.7916 210.856C79.4097 208.238 77.8824 198.311 76.7916 193.675C80.0642 190.402 57.974 171.039 46.5199 161.767C42.5927 160.458 41.0655 153.585 40.7928 150.313L48.9743 116.768C49.6288 108.26 55.7923 105.587 58.7922 105.314L72.7008 100.405H94.791C116.39 108.914 91.7911 111.587 76.7916 111.86H86.6094L94.791 114.314L113.609 124.132C124.081 133.95 109.245 132.041 100.518 129.859V135.586L105.427 147.04C119.826 160.785 116.881 193.675 113.609 208.402C109.681 214.293 111.972 321.034 113.609 373.669Z" fill="#F9844A"/>
<path d="M54.7019 443.212C64.7925 435.468 88.4099 420.862 102.155 424.395M105.427 424.395C109.518 412.122 116.881 384.796 113.609 373.669C111.972 321.034 109.681 214.293 113.609 208.402C116.881 193.675 119.827 160.785 105.427 147.04L100.518 135.586V129.859C109.245 132.041 124.081 133.95 113.609 124.132L94.791 114.314L86.6094 111.86H76.7916C91.7911 111.587 116.39 108.914 94.791 100.405H72.7008L58.7922 105.314C55.7923 105.587 49.6288 108.26 48.9743 116.768L40.7928 150.313C41.0655 153.585 42.5927 160.458 46.5199 161.767C57.974 171.039 80.0642 190.402 76.7916 193.675C77.8824 198.311 79.4097 208.238 76.7916 210.856C56.8831 213.856 16.739 223.619 15.43 238.674C8.61203 251.491 -2.73304 282.527 6.43029 304.126C11.6121 330.034 20.994 384.469 17.0668 394.941C17.3395 403.123 21.1576 420.958 34.2481 426.849L52.2475 445.667C38.3388 462.03 12.3215 497.538 19.5213 508.665H201.97C195.697 498.028 182.33 476.269 176.44 476.924C174.804 467.924 165.804 448.125 142.895 440.925C132.259 434.38 109.354 422.431 105.427 424.395Z" stroke="#D05010" stroke-width="5.02731"/>
<path d="M19.5216 439.94C15.5944 445.176 21.1579 445.394 24.4305 444.849L48.9747 442.394L26.8845 421.122C26.8845 425.704 21.9759 435.576 19.5216 439.94Z" fill="#43AA8B"/>
<path d="M186.425 444.849C183.152 446.812 168.698 449.265 161.88 450.083C161.88 445.501 124.025 431.38 104.935 425.38C109.516 419.489 113.609 399.032 115.245 389.214L113.609 282.854C117.536 303.144 163.789 314.762 186.425 318.035C212.606 321.307 228.969 291.035 233.878 275.491L222.423 216.583H228.151L237.15 265.673L250.241 309.035C254.168 312.962 256.786 341.216 257.604 354.852C258.913 380.378 238.514 388.396 228.151 389.214L224.878 393.305C226.841 397.232 224.06 411.85 222.423 418.668C225.696 418.668 227.605 432.849 228.151 439.94C226.187 445.176 199.515 445.394 186.425 444.849Z" fill="#43AA8B"/>
<path d="M72.7012 226.401C72.7012 220.511 56.8835 217.402 48.9747 216.583L66.9741 213.311L75.9738 220.674L72.7012 226.401Z" fill="#43AA8B"/>
<path d="M19.5216 439.94C15.5944 445.176 21.1579 445.394 24.4305 444.849L48.9747 442.394L26.8845 421.122C26.8845 425.704 21.9759 435.576 19.5216 439.94Z" stroke="#3F8F77" stroke-width="5.02731"/>
<path d="M186.425 444.849C183.152 446.812 168.698 449.265 161.88 450.083C161.88 445.501 124.025 431.38 104.935 425.38C109.516 419.489 113.609 399.032 115.245 389.214L113.609 282.854C117.536 303.144 163.789 314.762 186.425 318.035C212.606 321.307 228.969 291.035 233.878 275.491L222.423 216.583H228.151L237.15 265.673L250.241 309.035C254.168 312.962 256.786 341.216 257.604 354.852C258.913 380.378 238.514 388.396 228.151 389.214L224.878 393.305C226.841 397.232 224.06 411.85 222.423 418.668C225.696 418.668 227.605 432.849 228.151 439.94C226.187 445.176 199.515 445.394 186.425 444.849Z" stroke="#3F8F77" stroke-width="5.02731"/>
<path d="M72.7012 226.401C72.7012 220.511 56.8835 217.402 48.9747 216.583L66.9741 213.311L75.9738 220.674L72.7012 226.401Z" stroke="#3F8F77" stroke-width="5.02731"/>
<path d="M212.606 65.2249C213.261 59.3342 198.152 38.2258 190.516 28.4079C184.626 27.0989 138.427 81.3153 116.063 108.587L110.336 152.767L116.063 167.494C120.645 172.73 117.972 191.493 116.063 200.22C112.791 204.802 112.518 228.856 112.791 240.31C110.173 251.437 116.609 279.309 120.154 291.854C123.427 306.908 123.154 336.307 122.608 349.125C127.845 346.506 126.972 289.672 125.881 261.582L132.426 345.034C135.044 339.798 133.517 251.764 132.426 208.402C138.972 212.329 142.79 231.31 143.88 240.31C139.299 244.892 139.79 262.4 140.608 270.582C136.681 273.2 138.972 289.672 140.608 297.581C148.462 294.308 158.607 266.764 162.698 253.4C167.934 248.819 157.789 191.493 152.063 163.403C150.754 158.167 154.244 151.404 156.153 148.677C163.353 146.713 167.335 152.222 168.426 155.222C172.353 164.385 172.244 194.493 171.698 208.402C173.007 245.055 202.788 277.127 217.515 288.581C204.425 277.454 196.788 264.309 194.607 259.128C190.68 253.891 187.516 174.039 186.425 134.768C187.734 122.332 189.698 118.132 190.516 117.587L212.606 200.22C216.533 191.712 202.243 131.223 194.607 102.042L222.424 200.22C226.351 191.057 198.97 86.2242 184.789 34.9532L212.606 65.2249Z" fill="black" stroke="black" stroke-width="5.02731"/>
<path d="M77.61 214.129C68.0649 253.4 47.5019 334.398 41.6112 344.216C33.1569 359.215 17.2302 390.687 21.1573 396.577" stroke="#D05010" stroke-width="5.02731"/>
<path d="M296.875 487.393C278.549 487.393 261.967 502.665 255.967 510.301H540.685C561.63 477.575 525.958 454.667 505.505 447.303C491.105 441.413 447.143 451.939 426.962 457.939C421.071 459.903 378.145 468.575 357.419 472.666L296.875 487.393Z" fill="#F9844A"/>
<path d="M469.506 480.847C454.779 485.756 422.053 497.701 408.962 506.21M255.967 510.301C261.967 502.665 278.549 487.393 296.875 487.393L357.419 472.666C378.145 468.575 421.071 459.903 426.962 457.939C447.143 451.939 491.105 441.413 505.505 447.303C525.958 454.667 561.63 477.575 540.685 510.301H255.967Z" stroke="#D05010" stroke-width="5.02731"/>
<path d="M19.5204 507.847C18.2113 486.247 39.1561 458.485 49.7921 447.303C42.2481 437.244 27.5588 444.999 20.3685 450.702C13.1924 467.821 8.08639 495.931 6.43042 507.847H19.5204Z" fill="#277DA1"/>
<path d="M189.697 445.35C185.115 442.631 167.739 448.246 161.739 450.743C166.975 451.296 173.079 468.533 178.243 476.757C182.17 478.72 196.788 500.483 203.606 511.119L257.604 507.847L272.331 492.302C257.277 496.883 242.059 482.211 236.332 474.302C240.259 470.375 228.696 451.077 222.423 442.896C220.46 448.132 199.788 446.714 189.697 445.35Z" fill="#277DA1"/>
<path d="M19.5204 451.394C19.7897 451.168 20.0728 450.937 20.3685 450.702M20.3685 450.702C27.5588 444.999 42.2481 437.244 49.7921 447.303C39.1561 458.485 18.2113 486.247 19.5204 507.847H6.43042C8.08639 495.931 13.1924 467.821 20.3685 450.702ZM161.739 450.743C167.739 448.246 185.115 442.631 189.697 445.35C199.788 446.714 220.46 448.132 222.423 442.896C228.696 451.077 240.259 470.375 236.332 474.302C242.059 482.211 257.277 496.883 272.331 492.302L257.604 507.847L203.606 511.119C196.788 500.483 182.17 478.72 178.243 476.757C173.079 468.533 166.975 451.296 161.739 450.743Z" stroke="#1E6482" stroke-width="5.02731"/>
<path d="M226.514 475.12C221.605 477.848 210.805 485.593 206.878 494.756" stroke="#296984" stroke-width="10.0546"/>
<path fill-rule="evenodd" clip-rule="evenodd" d="M121.238 107.164L120.155 97.951C109.791 78.3153 88.2464 36.9167 84.9738 28.4079L103.791 17.7719C113.882 39.0439 134.881 83.2242 138.154 89.7694L144.339 93.8928C157.302 94.5565 167.608 105.277 167.608 118.405C167.608 131.96 156.619 142.949 143.063 142.949C129.508 142.949 118.519 131.96 118.519 118.405C118.519 114.354 119.5 110.532 121.238 107.164Z" fill="#F94144"/>
<ellipse cx="143.063" cy="117.587" rx="14.7268" ry="15.5449" fill="white"/>
<path d="M156.972 139.677C157.629 140.993 158.131 144.367 159.426 145.199C159.968 145.548 160.091 146.452 160.494 146.631C162.93 147.714 165.161 150.043 166.971 151.949C168.186 153.228 168.458 155.673 169.267 157.29C170.071 158.899 170.062 160.043 170.062 161.858C170.062 165.678 170.227 168.96 171.198 172.63C172.2 176.415 173.219 181.154 173.335 185.084C173.604 194.223 173.791 203.362 173.335 212.493C173.222 214.747 173.672 217.1 172.926 219.265C171.971 222.033 171.813 225.535 171.698 228.447C171.526 232.845 171.289 237.261 171.289 241.719C171.289 249.462 169.909 257.741 171.789 265.264C172.797 269.293 172.943 273.327 174.062 277.354C175.199 281.448 176.409 285.396 178.244 289.172C179.089 290.913 180.565 292.228 181.698 293.876C182.542 295.103 183.496 296.611 184.516 297.672C186.788 300.034 189.539 302.017 192.334 303.899C196.966 307.017 201.979 309.572 206.243 313.126C208.525 315.027 210.92 316.086 212.015 319.057C212.255 319.709 212.618 320.416 213.015 320.989C213.89 322.252 214.438 322.899 215.47 322.125" stroke="white" stroke-width="5.02731" stroke-linecap="round" stroke-linejoin="round"/>
<path d="M198.288 219.447C199.72 221.739 200.361 238.205 201.56 240.537C203.191 243.709 204.037 246.838 204.878 250.31C205.478 252.784 206.06 254.454 206.06 257.082C206.06 259.173 206.06 261.264 206.06 263.355C206.06 266.08 207.287 268.243 207.287 270.968C207.287 273.718 207.802 277.501 208.515 280.172C209.23 282.856 208.924 285.811 208.924 288.581C208.924 292.441 207.988 298.081 209.424 301.672C210.248 303.732 210.061 306.168 210.651 308.308C211.039 309.715 210.969 311.079 210.969 312.535C210.969 313.913 211.955 314.186 212.219 315.376C213.215 319.858 215.259 324.062 216.082 328.671C216.43 330.62 217.514 331.668 217.514 333.739C217.514 335.322 218.279 336.548 218.332 337.989C218.451 341.199 218.332 344.435 218.332 347.647C218.332 352.938 219.56 358.054 219.56 363.26C219.56 365.69 221.196 367.817 221.196 370.215C221.196 372.648 220.841 375.453 221.287 377.851C221.544 379.233 222.423 380.469 222.423 381.851C222.423 383.07 222.423 384.29 222.423 385.51C222.423 387.563 222.423 389.616 222.423 391.669C222.423 395.634 223.346 401.284 221.605 404.941C220.405 407.46 220.937 410.245 220.787 412.941C220.71 414.325 219.759 416.081 219.469 417.531C219.237 418.691 219.364 420.257 218.923 421.327C217.686 424.331 218.016 427.792 217.287 430.917C216.463 434.449 215.696 437.85 214.56 441.258C214.056 442.77 214.286 444.156 213.423 445.576C212.669 446.818 212.375 448.346 212.173 449.758C211.955 451.288 211.303 452.753 210.969 454.257C210.63 455.784 209.453 457.278 209.333 458.757C209.073 461.965 206.712 464.513 205.446 467.325C203.99 470.562 201.215 474.482 201.151 477.984C201.085 481.605 198.849 486.523 196.879 489.62C195.947 491.084 195.668 491.362 193.788 492.302" stroke="white" stroke-width="5.02731" stroke-linecap="round" stroke-linejoin="round"/>
<path d="M84.1557 137.222V144.586L92.3372 151.949V144.586L84.1557 137.222Z" fill="#D76D39"/>
<path d="M49.7932 137.222L68.6108 111.042H89.0646L107.882 120.041M58.7929 142.131L75.9742 120.041L98.0643 128.223L102.973 142.131L98.0643 144.586L92.3372 134.768L84.1557 132.314L79.2468 137.222V144.586M98.0643 156.858L102.973 165.04M84.1557 144.586V137.222L92.3372 144.586V151.949L84.1557 144.586Z" stroke="#D05010" stroke-width="5.02731"/>
<path d="M278.844 64.4102L294.073 58.3185V68.4466C293.168 67.8672 292.092 67.5313 290.938 67.5313C287.722 67.5313 285.115 70.1383 285.115 73.3542C285.115 76.57 287.722 79.1771 290.938 79.1771C294.153 79.1771 296.76 76.57 296.76 73.3542V56.2371C296.76 54.1895 296.76 52.4722 296.616 51.104C296.596 50.9107 296.572 50.7184 296.545 50.539C296.407 49.6043 296.161 48.7323 295.688 48.0042C295.451 47.6401 295.157 47.312 294.792 47.0299C294.723 46.9771 294.652 46.9258 294.578 46.8762L294.563 46.8663C293.296 46.023 291.872 46.0833 290.404 46.4573C288.985 46.8189 287.226 47.5554 285.068 48.4584L281.316 50.0287C280.305 50.452 279.448 50.8106 278.776 51.182C278.06 51.5771 277.444 52.0432 276.982 52.7377C276.519 53.4322 276.327 54.1807 276.239 54.9933C276.156 55.757 276.156 56.6858 276.156 57.7821V72.03C275.251 71.4505 274.175 71.1146 273.021 71.1146C269.805 71.1146 267.198 73.7217 267.198 76.9375C267.198 80.1534 269.805 82.7604 273.021 82.7604C276.237 82.7604 278.844 80.1534 278.844 76.9375V64.4102Z" fill="white"/>
<path opacity="0.5" d="M269.885 45.5833C269.885 44.8412 269.284 44.2396 268.542 44.2396C267.8 44.2396 267.198 44.8412 267.198 45.5833V55.9049C266.293 55.3255 265.217 54.9896 264.062 54.9896C260.847 54.9896 258.24 57.5966 258.24 60.8125C258.24 64.0283 260.847 66.6354 264.062 66.6354C267.278 66.6354 269.885 64.0283 269.885 60.8125V50.9664C271.137 51.8705 272.626 52.3021 273.917 52.3021C274.659 52.3021 275.26 51.7004 275.26 50.9583C275.26 50.2162 274.659 49.6146 273.917 49.6146C273.103 49.6146 272.065 49.299 271.25 48.6262C270.474 47.9852 269.885 47.0128 269.885 45.5833Z" fill="white"/>
<path d="M319.844 117.41L335.073 111.319V121.447C334.168 120.867 333.092 120.531 331.938 120.531C328.722 120.531 326.115 123.138 326.115 126.354C326.115 129.57 328.722 132.177 331.938 132.177C335.153 132.177 337.76 129.57 337.76 126.354V109.237C337.76 107.189 337.76 105.472 337.616 104.104C337.596 103.911 337.572 103.718 337.545 103.539C337.407 102.604 337.161 101.732 336.688 101.004C336.451 100.64 336.157 100.312 335.792 100.03C335.723 99.9771 335.652 99.9258 335.578 99.8762L335.563 99.8663C334.296 99.023 332.872 99.0833 331.404 99.4573C329.985 99.8189 328.226 100.555 326.068 101.458L322.316 103.029C321.305 103.452 320.448 103.811 319.776 104.182C319.06 104.577 318.444 105.043 317.982 105.738C317.519 106.432 317.327 107.181 317.239 107.993C317.156 108.757 317.156 109.686 317.156 110.782V125.03C316.251 124.451 315.175 124.115 314.021 124.115C310.805 124.115 308.198 126.722 308.198 129.938C308.198 133.153 310.805 135.76 314.021 135.76C317.237 135.76 319.844 133.153 319.844 129.938V117.41Z" fill="white"/>
<path opacity="0.5" d="M310.885 98.5833C310.885 97.8412 310.284 97.2396 309.542 97.2396C308.8 97.2396 308.198 97.8412 308.198 98.5833V108.905C307.293 108.326 306.217 107.99 305.062 107.99C301.847 107.99 299.24 110.597 299.24 113.812C299.24 117.028 301.847 119.635 305.062 119.635C308.278 119.635 310.885 117.028 310.885 113.812V103.966C312.137 104.871 313.626 105.302 314.917 105.302C315.659 105.302 316.26 104.7 316.26 103.958C316.26 103.216 315.659 102.615 314.917 102.615C314.103 102.615 313.065 102.299 312.25 101.626C311.474 100.985 310.885 100.013 310.885 98.5833Z" fill="white"/>
<path d="M341.844 39.4102L357.073 33.3185V43.4466C356.168 42.8672 355.092 42.5313 353.938 42.5313C350.722 42.5313 348.115 45.1383 348.115 48.3542C348.115 51.57 350.722 54.1771 353.938 54.1771C357.153 54.1771 359.76 51.57 359.76 48.3542V31.2371C359.76 29.1895 359.76 27.4722 359.616 26.104C359.596 25.9107 359.572 25.7184 359.545 25.539C359.407 24.6043 359.161 23.7323 358.688 23.0042C358.451 22.6401 358.157 22.312 357.792 22.0299C357.723 21.9771 357.652 21.9258 357.578 21.8762L357.563 21.8663C356.296 21.023 354.872 21.0833 353.404 21.4573C351.985 21.8189 350.226 22.5554 348.068 23.4584L344.316 25.0287C343.305 25.452 342.448 25.8106 341.776 26.182C341.06 26.5771 340.444 27.0432 339.982 27.7377C339.519 28.4322 339.327 29.1807 339.239 29.9933C339.156 30.757 339.156 31.6858 339.156 32.7821V47.03C338.251 46.4505 337.175 46.1146 336.021 46.1146C332.805 46.1146 330.198 48.7217 330.198 51.9375C330.198 55.1534 332.805 57.7604 336.021 57.7604C339.237 57.7604 341.844 55.1534 341.844 51.9375V39.4102Z" fill="white"/>
<path opacity="0.5" d="M332.885 20.5833C332.885 19.8412 332.284 19.2396 331.542 19.2396C330.8 19.2396 330.198 19.8412 330.198 20.5833V30.9049C329.293 30.3255 328.217 29.9896 327.062 29.9896C323.847 29.9896 321.24 32.5966 321.24 35.8125C321.24 39.0283 323.847 41.6354 327.062 41.6354C330.278 41.6354 332.885 39.0283 332.885 35.8125V25.9664C334.137 26.8705 335.626 27.3021 336.917 27.3021C337.659 27.3021 338.26 26.7004 338.26 25.9583C338.26 25.2162 337.659 24.6146 336.917 24.6146C336.103 24.6146 335.065 24.299 334.25 23.6262C333.474 22.9852 332.885 22.0128 332.885 20.5833Z" fill="white"/>
</svg>
