<svg width="543" height="521" viewBox="0 0 543 521" fill="none" xmlns="http://www.w3.org/2000/svg">
<path d="M147.5 83C162.688 83 175 71.1355 175 56.5C175 41.8645 162.688 30 147.5 30C132.312 30 120 41.8645 120 56.5C120 71.1355 132.312 83 147.5 83Z" fill="white"/>
<path d="M253.375 59.9149C264.375 59.9149 273.292 51.3589 273.292 40.8046C273.292 30.2503 264.375 21.6943 253.375 21.6943C242.375 21.6943 233.457 30.2503 233.457 40.8046C233.457 51.3589 242.375 59.9149 253.375 59.9149Z" fill="white"/>
<path d="M176.742 269.054C184.967 262.045 185.712 249.966 178.408 242.075C171.103 234.184 158.514 233.468 150.29 240.477C142.065 247.485 141.319 259.564 148.624 267.455C155.929 275.347 168.518 276.062 176.742 269.054Z" fill="white"/>
<path d="M322.031 403.442C324.341 393.098 317.475 382.917 306.695 380.7C295.915 378.484 285.303 385.072 282.993 395.415C280.683 405.759 287.55 415.94 298.33 418.157C309.11 420.373 319.721 413.785 322.031 403.442Z" fill="#091227"/>
<path d="M186.193 154.778C191.076 152.825 193.384 147.444 191.348 142.759C189.313 138.074 183.704 135.859 178.822 137.812C173.939 139.765 171.631 145.146 173.666 149.831C175.702 154.516 181.31 156.731 186.193 154.778Z" fill="white"/>
<path d="M374.442 406.922C384.176 406.922 392.068 399.35 392.068 390.01C392.068 380.67 384.176 373.098 374.442 373.098C364.708 373.098 356.816 380.67 356.816 390.01C356.816 399.35 364.708 406.922 374.442 406.922Z" fill="#091227"/>
<path d="M516.692 161.859C525.22 153.675 525.22 140.408 516.692 132.224C508.163 124.041 494.335 124.041 485.806 132.224C477.277 140.408 477.277 153.675 485.806 161.859C494.335 170.042 508.163 170.042 516.692 161.859Z" fill="white"/>
<path d="M39.6064 242.973C39.6064 244.282 39.202 245.561 38.4442 246.649C37.6865 247.738 36.6094 248.586 35.3493 249.086C34.0892 249.587 32.7027 249.718 31.3649 249.463C30.0272 249.208 28.7985 248.577 27.834 247.652C26.8696 246.727 26.2128 245.548 25.9467 244.264C25.6806 242.981 25.8172 241.65 26.3391 240.441C26.8611 239.232 27.745 238.199 28.879 237.472C30.0131 236.745 31.3464 236.357 32.7103 236.357C33.6159 236.357 34.5127 236.528 35.3493 236.86C36.186 237.193 36.9462 237.68 37.5866 238.295C38.227 238.909 38.7349 239.639 39.0815 240.441C39.428 241.244 39.6064 242.104 39.6064 242.973Z" fill="white"/>
<path d="M98.283 154.758C106.572 154.758 113.292 148.31 113.292 140.357C113.292 132.404 106.572 125.957 98.283 125.957C89.994 125.957 83.2745 132.404 83.2745 140.357C83.2745 148.31 89.994 154.758 98.283 154.758Z" fill="white"/>
<path d="M38.0643 83.0266H509.171" stroke="#263238" stroke-linecap="round" stroke-linejoin="round"/>
<path d="M38.0643 91.2271H509.171" stroke="#263238" stroke-linecap="round" stroke-linejoin="round"/>
<path d="M38.0643 99.4172H509.171" stroke="#263238" stroke-linecap="round" stroke-linejoin="round"/>
<path d="M38.0643 107.607H509.171" stroke="#263238" stroke-linecap="round" stroke-linejoin="round"/>
<path d="M38.0643 115.798H509.171" stroke="#263238" stroke-linecap="round" stroke-linejoin="round"/>
<path d="M74.5865 76.8789H73.3159V100.845C71.7629 99.9592 68.9719 99.8863 66.1483 100.845C62.2495 102.095 59.6323 104.732 60.3599 106.732C61.0875 108.733 64.7799 109.327 68.6786 108.066C71.8823 107.024 74.1955 105.075 74.543 103.304L74.5865 76.8789Z" fill="white" stroke="white" stroke-linecap="round" stroke-linejoin="round"/>
<path d="M116.441 76.8789H115.116V100.845C113.563 99.9592 110.772 99.8863 107.959 100.845C104.061 102.095 101.443 104.732 102.16 106.732C102.877 108.733 106.591 109.327 110.49 108.066C113.682 107.024 116.007 105.075 116.343 103.304L116.441 76.8789Z" fill="white" stroke="white" stroke-linecap="round" stroke-linejoin="round"/>
<path d="M200.486 131.844H201.768V107.878C203.321 108.775 206.112 108.847 208.925 107.878C212.823 106.618 215.441 103.981 214.724 101.991C214.007 100.001 210.293 99.3965 206.394 100.657C203.201 101.699 200.888 103.637 200.541 105.409L200.486 131.844Z" fill="white" stroke="white" stroke-linecap="round" stroke-linejoin="round"/>
<path d="M183.805 91.196C183.599 86.2882 181.46 83.0163 178.05 80.974C176.216 79.9785 174.659 78.5739 173.51 76.8789H172.229V100.845C170.676 99.9592 167.885 99.8863 165.072 100.845C161.173 102.095 158.556 104.732 159.273 106.732C159.99 108.733 163.704 109.327 167.602 108.066C170.795 107.024 173.108 105.075 173.456 103.304H173.51V83.2247C175.099 84.6718 176.936 85.8456 178.94 86.6945C183.197 88.5389 183.838 97.3229 183.838 97.3229C183.997 95.283 183.986 93.2342 183.805 91.196Z" fill="white" stroke="white" stroke-linecap="round" stroke-linejoin="round"/>
<path d="M344.11 76.8789H342.828V100.845C341.286 99.9592 338.484 99.8863 335.672 100.845C331.773 102.095 329.156 104.732 329.883 106.732C330.611 108.733 334.303 109.327 338.202 108.066C341.406 107.024 343.719 105.075 344.067 103.304L344.11 76.8789Z" fill="#263238" stroke="#263238" stroke-linecap="round" stroke-linejoin="round"/>
<path d="M385.964 76.8789H384.683V100.845C383.13 99.9592 380.339 99.8863 377.526 100.845C373.627 102.095 371.01 104.732 371.727 106.732C372.444 108.733 376.158 109.327 380.057 108.066C383.249 107.024 385.563 105.075 385.91 103.304L385.964 76.8789Z" fill="#263238" stroke="#263238" stroke-linecap="round" stroke-linejoin="round"/>
<path d="M470.01 131.844H471.324V107.878C472.877 108.775 475.668 108.847 478.481 107.878C482.379 106.618 484.997 103.981 484.28 101.991C483.563 100.001 479.849 99.3965 475.95 100.657C472.758 101.699 470.444 103.637 470.097 105.409L470.01 131.844Z" fill="#263238" stroke="#263238" stroke-linecap="round" stroke-linejoin="round"/>
<path d="M453.329 91.196C453.112 86.2882 450.983 83.0163 447.573 80.974C445.759 79.9718 444.221 78.5677 443.088 76.8789H441.807V100.845C440.254 99.9592 437.463 99.8863 434.65 100.845C430.751 102.095 428.134 104.732 428.851 106.732C429.567 108.733 433.281 109.327 437.18 108.066C440.373 107.024 442.686 105.075 443.034 103.304H443.088V83.2247C444.677 84.6718 446.514 85.8456 448.518 86.6945C452.775 88.5389 453.416 97.3229 453.416 97.3229C453.557 95.2817 453.528 93.2328 453.329 91.196Z" fill="#263238" stroke="#263238" stroke-linecap="round" stroke-linejoin="round"/>
<path d="M259.815 75.1699V76.8788V100.845C258.273 99.9591 255.471 99.8862 252.658 100.845C248.759 102.095 246.142 104.731 246.87 106.732C247.597 108.733 251.29 109.327 255.188 108.066C258.381 107.024 260.705 105.075 261.053 103.304V79.9631H302.256V100.803C300.703 99.9174 297.912 99.8445 295.099 100.803C291.2 102.054 288.583 104.69 289.3 106.69C290.016 108.691 293.72 109.285 297.618 108.024C300.822 106.982 303.135 105.034 303.483 103.262V75.1699H259.815Z" fill="white" stroke="white" stroke-linecap="round" stroke-linejoin="round"/>
<path d="M38.0643 173.826H509.171" stroke="#263238" stroke-linecap="round" stroke-linejoin="round"/>
<path d="M38.0643 182.017H509.171" stroke="#263238" stroke-linecap="round" stroke-linejoin="round"/>
<path d="M38.0643 190.207H509.171" stroke="#263238" stroke-linecap="round" stroke-linejoin="round"/>
<path d="M38.0643 198.397H509.171" stroke="#263238" stroke-linecap="round" stroke-linejoin="round"/>
<path d="M38.0643 206.587H509.171" stroke="#263238" stroke-linecap="round" stroke-linejoin="round"/>
<path d="M74.5865 167.668H73.3159V191.634C71.7629 190.749 68.9719 190.676 66.1483 191.634C62.2495 192.895 59.6323 195.521 60.3599 197.522C61.0875 199.522 64.7799 200.116 68.6786 198.855C71.8823 197.813 74.1955 195.865 74.543 194.093L74.5865 167.668Z" fill="white" stroke="white" stroke-linecap="round" stroke-linejoin="round"/>
<path d="M116.441 167.668H115.116V191.634C113.563 190.749 110.772 190.676 107.959 191.634C104.061 192.895 101.443 195.521 102.16 197.522C102.877 199.522 106.591 200.116 110.49 198.855C113.682 197.813 116.007 195.865 116.343 194.093L116.441 167.668Z" fill="#263238" stroke="#263238" stroke-linecap="round" stroke-linejoin="round"/>
<path d="M200.486 222.634H201.768V198.668C203.321 199.564 206.112 199.637 208.925 198.72C212.823 197.459 215.441 194.823 214.724 192.833C214.007 190.842 210.293 190.238 206.394 191.499C203.201 192.541 200.888 194.479 200.541 196.25L200.486 222.634Z" fill="white" stroke="white" stroke-linecap="round" stroke-linejoin="round"/>
<path d="M183.805 181.985C183.599 177.077 181.46 173.806 178.05 171.763C176.216 170.768 174.659 169.363 173.51 167.668H172.229V191.634C170.676 190.749 167.885 190.676 165.072 191.634C161.173 192.895 158.556 195.521 159.273 197.522C159.99 199.522 163.704 200.116 167.602 198.855C170.795 197.813 173.108 195.865 173.456 194.093H173.51V174.014C175.099 175.461 176.936 176.635 178.94 177.484C183.197 179.328 183.838 188.112 183.838 188.112C183.997 186.072 183.986 184.024 183.805 181.985Z" fill="white" stroke="white" stroke-linecap="round" stroke-linejoin="round"/>
<path d="M344.11 167.668H342.828V191.634C341.286 190.749 338.484 190.676 335.672 191.634C331.773 192.895 329.156 195.521 329.883 197.522C330.611 199.522 334.303 200.116 338.202 198.855C341.406 197.813 343.719 195.865 344.067 194.093L344.11 167.668Z" fill="#263238" stroke="#263238" stroke-linecap="round" stroke-linejoin="round"/>
<path d="M385.964 167.668H384.683V191.634C383.13 190.749 380.339 190.676 377.526 191.634C373.627 192.895 371.01 195.521 371.727 197.522C372.444 199.522 376.158 200.116 380.057 198.855C383.249 197.813 385.563 195.865 385.91 194.093L385.964 167.668Z" fill="#263238" stroke="#263238" stroke-linecap="round" stroke-linejoin="round"/>
<path d="M470.01 222.634H471.324V198.668C472.877 199.564 475.668 199.637 478.481 198.72C482.379 197.459 484.997 194.823 484.28 192.833C483.563 190.842 479.849 190.238 475.95 191.499C472.758 192.541 470.444 194.479 470.097 196.25L470.01 222.634Z" fill="#263238" stroke="#263238" stroke-linecap="round" stroke-linejoin="round"/>
<path d="M453.329 181.985C453.112 177.077 450.983 173.806 447.573 171.763C445.739 170.768 444.182 169.363 443.034 167.668H441.752V191.634C440.199 190.749 437.408 190.676 434.595 191.634C430.697 192.895 428.08 195.521 428.796 197.522C429.513 199.522 433.227 200.116 437.126 198.855C440.319 197.813 442.632 195.865 442.979 194.093H443.088V174.014C444.677 175.461 446.514 176.635 448.518 177.484C452.775 179.328 453.416 188.112 453.416 188.112C453.557 186.071 453.528 184.022 453.329 181.985Z" fill="#263238" stroke="#263238" stroke-linecap="round" stroke-linejoin="round"/>
<path d="M259.815 165.97V167.668V191.634C258.273 190.748 255.471 190.676 252.658 191.634C248.759 192.895 246.142 195.521 246.87 197.521C247.597 199.522 251.29 200.116 255.188 198.855C258.381 197.813 260.705 195.865 261.053 194.093V170.763H302.256V191.603C300.703 190.717 297.912 190.644 295.099 191.603C291.2 192.864 288.583 195.49 289.3 197.49C290.016 199.491 293.72 200.085 297.618 198.824C300.822 197.782 303.135 195.833 303.483 194.062V165.97H259.815Z" fill="#263238" stroke="#263238" stroke-linecap="round" stroke-linejoin="round"/>
<path d="M226.464 254.092L353.102 90.0808H426.244L431.674 94.0925L411.594 124.165C411.594 124.165 429.567 134.189 474.289 141.806C519.01 149.423 529.458 168.272 524.44 182.715C519.423 197.157 508.563 216.402 480.555 231.241C452.547 246.079 418.653 256.905 418.653 256.905H225.204L226.464 254.092Z" fill="#263238" stroke="#263238" stroke-linecap="round" stroke-linejoin="round"/>
<path d="M342.231 141.41L366.894 254.894" stroke="#737373" stroke-width="4" stroke-linecap="round" stroke-linejoin="round"/>
<path d="M409.531 130.979C409.531 130.979 448.811 141.806 472.638 146.224C496.465 150.642 518.608 161.062 521.508 171.888" stroke="#878787" stroke-linecap="round" stroke-linejoin="round"/>
<path d="M426.244 94.0925H361.464L269.925 215.996" stroke="#878787" stroke-linecap="round" stroke-linejoin="round"/>
<path d="M325.376 255.196C325.29 252.508 325.235 248.413 325.518 244.651C325.995 238.399 332.631 228.198 333.587 224.332C334.542 220.466 331.208 222.394 325.985 222.394C314.039 222.303 302.128 221.17 290.396 219.007C275.681 216.111 273.314 217.08 258.12 219.977C249.181 221.741 239.945 221.577 231.079 219.497C230.577 225.202 229.625 230.862 228.234 236.43C226.192 244.766 221.37 253.008 220.045 255.186L325.376 255.196Z" fill="#616161" stroke="#263238" stroke-linecap="round" stroke-linejoin="round"/>
<path d="M291.211 340.369H216.385V352.019H291.211V340.369Z" fill="#263238" stroke="#263238" stroke-linecap="round" stroke-linejoin="round"/>
<path d="M291.211 340.369H266.722V352.019H291.211V340.369Z" fill="#263238" stroke="#263238" stroke-linecap="round" stroke-linejoin="round"/>
<path d="M163.519 254.748H521.812V320.936H388.516C388.516 320.936 381.664 317.226 379.948 324.218C379.349 326.828 378.968 329.48 378.808 332.148C378.648 334.35 377.623 336.412 375.94 337.917C374.256 339.422 372.04 340.257 369.74 340.255H140.8V309.88C140.8 309.012 140.978 308.152 141.325 307.35C141.672 306.548 142.18 305.819 142.82 305.205C143.461 304.592 144.221 304.105 145.058 303.774C145.894 303.442 146.791 303.273 147.696 303.274H154.646C155.92 303.273 157.181 303.028 158.354 302.554C159.528 302.08 160.592 301.386 161.482 300.512C162.373 299.639 163.074 298.604 163.543 297.468C164.012 296.332 164.24 295.118 164.214 293.896L163.519 254.748Z" fill="#263238" stroke="#263238" stroke-linecap="round" stroke-linejoin="round"/>
<path d="M307.946 255.154V295.084C307.946 297.474 306.956 299.767 305.195 301.457C303.433 303.148 301.044 304.097 298.552 304.097H289.549C287.723 304.097 285.972 304.793 284.681 306.032C283.389 307.271 282.664 308.951 282.664 310.703V340.275H369.74C372.04 340.278 374.256 339.443 375.94 337.938C377.623 336.433 378.648 334.371 378.808 332.169C378.968 329.501 379.349 326.849 379.948 324.239C381.664 317.247 388.516 320.957 388.516 320.957H521.812V254.748H313.3L307.946 255.154Z" fill="#263238" stroke="#263238" stroke-linecap="round" stroke-linejoin="round"/>
<path d="M307.935 258.093V297.22C307.937 298.113 307.755 298.997 307.399 299.823C307.044 300.648 306.523 301.399 305.865 302.031C305.208 302.663 304.427 303.164 303.567 303.506C302.707 303.848 301.785 304.024 300.855 304.024H289.962C288.084 304.024 286.283 304.74 284.955 306.014C283.627 307.288 282.881 309.016 282.881 310.818V318.018" stroke="#878787" stroke-linecap="round" stroke-linejoin="round"/>
<path d="M388.516 320.957V256.395" stroke="#878787" stroke-linecap="round" stroke-linejoin="round"/>
<path d="M169.09 255.978V317.247" stroke="#878787" stroke-linecap="round" stroke-linejoin="round"/>
<path d="M282.078 326.292H140.8V340.286H282.078V326.292Z" fill="#616161" stroke="#263238" stroke-linecap="round" stroke-linejoin="round"/>
<path d="M165.658 321.499H161.456V322.905H165.658V321.499Z" fill="#263238" stroke="#263238" stroke-linecap="round" stroke-linejoin="round"/>
<path d="M171.631 321.499H167.429V322.905H171.631V321.499Z" fill="#263238" stroke="#263238" stroke-linecap="round" stroke-linejoin="round"/>
<path d="M177.604 321.499H173.402V322.905H177.604V321.499Z" fill="#263238" stroke="#263238" stroke-linecap="round" stroke-linejoin="round"/>
<path d="M187.53 321.499H183.328V322.905H187.53V321.499Z" fill="#263238" stroke="#263238" stroke-linecap="round" stroke-linejoin="round"/>
<path d="M193.091 321.499H188.888V322.905H193.091V321.499Z" fill="#263238" stroke="#263238" stroke-linecap="round" stroke-linejoin="round"/>
<path d="M202.984 321.499H198.781V322.905H202.984V321.499Z" fill="#263238" stroke="#263238" stroke-linecap="round" stroke-linejoin="round"/>
<path d="M208.946 321.499H204.744V322.905H208.946V321.499Z" fill="#263238" stroke="#263238" stroke-linecap="round" stroke-linejoin="round"/>
<path d="M214.919 321.499H210.717V322.905H214.919V321.499Z" fill="#263238" stroke="#263238" stroke-linecap="round" stroke-linejoin="round"/>
<path d="M224.856 321.499H220.653V322.905H224.856V321.499Z" fill="#263238" stroke="#263238" stroke-linecap="round" stroke-linejoin="round"/>
<path d="M230.406 321.499H226.203V322.905H230.406V321.499Z" fill="#263238" stroke="#263238" stroke-linecap="round" stroke-linejoin="round"/>
<path d="M240.299 321.499H236.096V322.905H240.299V321.499Z" fill="#263238" stroke="#263238" stroke-linecap="round" stroke-linejoin="round"/>
<path d="M246.272 321.499H242.069V322.905H246.272V321.499Z" fill="#263238" stroke="#263238" stroke-linecap="round" stroke-linejoin="round"/>
<path d="M252.245 321.499H248.042V322.905H252.245V321.499Z" fill="#263238" stroke="#263238" stroke-linecap="round" stroke-linejoin="round"/>
<path d="M262.182 321.499H257.979V322.905H262.182V321.499Z" fill="#263238" stroke="#263238" stroke-linecap="round" stroke-linejoin="round"/>
<path d="M267.732 321.499H263.529V322.905H267.732V321.499Z" fill="#263238" stroke="#263238" stroke-linecap="round" stroke-linejoin="round"/>
<path d="M277.625 321.499H273.422V322.905H277.625V321.499Z" fill="#263238" stroke="#263238" stroke-linecap="round" stroke-linejoin="round"/>
<path d="M281.752 321.499H279.395V322.905H281.752V321.499Z" fill="#263238" stroke="#263238" stroke-linecap="round" stroke-linejoin="round"/>
<path d="M166.44 322.603V326.24" stroke="#263238" stroke-linecap="round" stroke-linejoin="round"/>
<path d="M160.022 322.603V326.24" stroke="#263238" stroke-linecap="round" stroke-linejoin="round"/>
<path d="M153.593 322.603V326.24" stroke="#263238" stroke-linecap="round" stroke-linejoin="round"/>
<path d="M172.522 322.603V326.24" stroke="#263238" stroke-linecap="round" stroke-linejoin="round"/>
<path d="M178.593 322.603V326.24" stroke="#263238" stroke-linecap="round" stroke-linejoin="round"/>
<path d="M184.674 322.603V326.24" stroke="#263238" stroke-linecap="round" stroke-linejoin="round"/>
<path d="M190.756 322.603V326.24" stroke="#263238" stroke-linecap="round" stroke-linejoin="round"/>
<path d="M196.827 322.603V326.24" stroke="#263238" stroke-linecap="round" stroke-linejoin="round"/>
<path d="M202.908 322.603V326.24" stroke="#263238" stroke-linecap="round" stroke-linejoin="round"/>
<path d="M208.99 322.603V326.24" stroke="#263238" stroke-linecap="round" stroke-linejoin="round"/>
<path d="M215.061 322.603V326.24" stroke="#263238" stroke-linecap="round" stroke-linejoin="round"/>
<path d="M221.142 322.603V326.24" stroke="#263238" stroke-linecap="round" stroke-linejoin="round"/>
<path d="M227.224 322.603V326.24" stroke="#263238" stroke-linecap="round" stroke-linejoin="round"/>
<path d="M233.295 322.603V326.24" stroke="#263238" stroke-linecap="round" stroke-linejoin="round"/>
<path d="M239.376 322.603V326.24" stroke="#263238" stroke-linecap="round" stroke-linejoin="round"/>
<path d="M245.458 322.603V326.24" stroke="#263238" stroke-linecap="round" stroke-linejoin="round"/>
<path d="M251.528 322.603V326.24" stroke="#263238" stroke-linecap="round" stroke-linejoin="round"/>
<path d="M257.61 322.603V326.24" stroke="#263238" stroke-linecap="round" stroke-linejoin="round"/>
<path d="M263.692 322.603V326.24" stroke="#263238" stroke-linecap="round" stroke-linejoin="round"/>
<path d="M269.773 322.603V326.24" stroke="#263238" stroke-linecap="round" stroke-linejoin="round"/>
<path d="M275.844 322.603V326.24" stroke="#263238" stroke-linecap="round" stroke-linejoin="round"/>
<path d="M282.078 322.687H151.953V326.386H282.078V322.687Z" fill="white" stroke="#263238" stroke-linecap="round" stroke-linejoin="round"/>
<path d="M166.44 322.603V326.24" stroke="#263238" stroke-linecap="round" stroke-linejoin="round"/>
<path d="M160.022 322.603V326.24" stroke="#263238" stroke-linecap="round" stroke-linejoin="round"/>
<path d="M153.593 322.603V326.24" stroke="#263238" stroke-linecap="round" stroke-linejoin="round"/>
<path d="M172.522 322.603V326.24" stroke="#263238" stroke-linecap="round" stroke-linejoin="round"/>
<path d="M178.593 322.603V326.24" stroke="#263238" stroke-linecap="round" stroke-linejoin="round"/>
<path d="M184.674 322.603V326.24" stroke="#263238" stroke-linecap="round" stroke-linejoin="round"/>
<path d="M190.756 322.603V326.24" stroke="#263238" stroke-linecap="round" stroke-linejoin="round"/>
<path d="M196.827 322.603V326.24" stroke="#263238" stroke-linecap="round" stroke-linejoin="round"/>
<path d="M202.908 322.603V326.24" stroke="#263238" stroke-linecap="round" stroke-linejoin="round"/>
<path d="M208.99 322.603V326.24" stroke="#263238" stroke-linecap="round" stroke-linejoin="round"/>
<path d="M215.061 322.603V326.24" stroke="#263238" stroke-linecap="round" stroke-linejoin="round"/>
<path d="M221.142 322.603V326.24" stroke="#263238" stroke-linecap="round" stroke-linejoin="round"/>
<path d="M227.224 322.603V326.24" stroke="#263238" stroke-linecap="round" stroke-linejoin="round"/>
<path d="M233.295 322.603V326.24" stroke="#263238" stroke-linecap="round" stroke-linejoin="round"/>
<path d="M239.376 322.603V326.24" stroke="#263238" stroke-linecap="round" stroke-linejoin="round"/>
<path d="M245.458 322.603V326.24" stroke="#263238" stroke-linecap="round" stroke-linejoin="round"/>
<path d="M251.528 322.603V326.24" stroke="#263238" stroke-linecap="round" stroke-linejoin="round"/>
<path d="M257.61 322.603V326.24" stroke="#263238" stroke-linecap="round" stroke-linejoin="round"/>
<path d="M263.692 322.603V326.24" stroke="#263238" stroke-linecap="round" stroke-linejoin="round"/>
<path d="M269.773 322.603V326.24" stroke="#263238" stroke-linecap="round" stroke-linejoin="round"/>
<path d="M275.844 322.603V326.24" stroke="#263238" stroke-linecap="round" stroke-linejoin="round"/>
<path d="M178.332 392.23L181.97 426.647H192.396L195.056 392.459L178.332 392.23Z" fill="#263238" stroke="#263238" stroke-linecap="round" stroke-linejoin="round"/>
<path d="M170.1 392.23L173.727 426.647H185.815L186.825 392.459L170.1 392.23Z" fill="#263238" stroke="#263238" stroke-linecap="round" stroke-linejoin="round"/>
<path d="M146.61 340.369H216.407V345.194C216.407 346.575 215.835 347.901 214.817 348.878C213.798 349.855 212.417 350.404 210.977 350.404H153.126C151.398 350.404 149.74 349.745 148.518 348.572C147.297 347.4 146.61 345.81 146.61 344.152V340.421V340.369Z" fill="#263238" stroke="#263238" stroke-linecap="round" stroke-linejoin="round"/>
<path d="M216.385 345.454V340.369H166.223V344.412C166.223 345.991 166.876 347.505 168.039 348.623C169.201 349.74 170.779 350.37 172.424 350.372H211.26C212.619 350.372 213.923 349.854 214.884 348.932C215.845 348.009 216.385 346.759 216.385 345.454Z" fill="#263238" stroke="#263238" stroke-linecap="round" stroke-linejoin="round"/>
<path d="M194.904 364.096H166.158C165.161 364.099 164.189 363.798 163.383 363.236C162.576 362.674 161.977 361.88 161.673 360.97L158.241 350.414H202.832L199.4 360.97C199.097 361.883 198.497 362.679 197.688 363.241C196.879 363.804 195.903 364.103 194.904 364.096Z" fill="#263238" stroke="#263238" stroke-linecap="round" stroke-linejoin="round"/>
<path d="M199.379 360.928L202.81 350.372H175.932L179.364 360.928C179.67 361.838 180.269 362.631 181.075 363.192C181.881 363.754 182.853 364.056 183.849 364.054H194.926C195.918 364.052 196.883 363.749 197.684 363.187C198.484 362.625 199.077 361.834 199.379 360.928Z" fill="#263238" stroke="#263238" stroke-linecap="round" stroke-linejoin="round"/>
<path d="M169.123 364.325L159.859 374.078V377.933C159.858 378.435 159.96 378.932 160.159 379.396C160.358 379.86 160.65 380.282 161.02 380.637C161.389 380.992 161.827 381.274 162.31 381.466C162.793 381.659 163.311 381.758 163.834 381.758H201.496C202.553 381.758 203.567 381.355 204.315 380.637C205.062 379.92 205.482 378.948 205.482 377.933V373.151L194.904 364.085L169.123 364.325Z" fill="#263238" stroke="#263238" stroke-linecap="round" stroke-linejoin="round"/>
<path d="M159.859 374.088H205.482" stroke="#263238" stroke-linecap="round" stroke-linejoin="round"/>
<path d="M200.877 381.768H165.734V387.864H200.877V381.768Z" fill="#263238" stroke="#263238" stroke-linecap="round" stroke-linejoin="round"/>
<path d="M199.824 393.157H166.158C165.421 393.157 164.714 392.876 164.192 392.376C163.671 391.875 163.378 391.197 163.378 390.489C163.378 389.781 163.67 389.101 164.191 388.6C164.713 388.098 165.42 387.814 166.158 387.812H199.824C200.564 387.812 201.274 388.094 201.798 388.596C202.321 389.098 202.615 389.779 202.615 390.489C202.612 391.198 202.317 391.876 201.794 392.376C201.271 392.876 200.562 393.157 199.824 393.157Z" fill="#263238" stroke="#263238" stroke-linecap="round" stroke-linejoin="round"/>
<path d="M173.727 426.647L175.183 436.41H191.179L192.396 426.647H173.727Z" fill="#263238" stroke="#263238" stroke-linecap="round" stroke-linejoin="round"/>
<path d="M185.326 426.647L184.837 436.41H191.179L192.396 426.647H185.326Z" fill="#263238" stroke="#263238" stroke-linecap="round" stroke-linejoin="round"/>
<path d="M178.093 436.483L180.276 444.09H185.608L188.519 436.483H178.093Z" fill="#263238" stroke="#263238" stroke-linecap="round" stroke-linejoin="round"/>
<path d="M186.77 454.468C189.505 454.468 191.722 452.341 191.722 449.717C191.722 447.093 189.505 444.965 186.77 444.965C184.035 444.965 181.818 447.093 181.818 449.717C181.818 452.341 184.035 454.468 186.77 454.468Z" fill="#263238" stroke="#263238" stroke-linecap="round" stroke-linejoin="round"/>
<path d="M181.753 444.204L185.825 449.842C185.924 449.981 186.051 450.1 186.199 450.192C186.347 450.283 186.512 450.346 186.685 450.375C186.858 450.404 187.036 450.399 187.207 450.362C187.378 450.324 187.54 450.253 187.683 450.154C187.829 450.054 187.952 449.927 188.046 449.78C188.139 449.633 188.2 449.469 188.226 449.298C188.251 449.128 188.24 448.954 188.193 448.788C188.147 448.622 188.065 448.466 187.954 448.331L184.544 444.163L181.753 444.204Z" fill="#263238" stroke="#263238" stroke-linecap="round" stroke-linejoin="round"/>
<path d="M194.329 427.116H172.283C171.831 427.116 171.397 426.943 171.077 426.637C170.758 426.33 170.578 425.914 170.578 425.48C170.578 425.265 170.622 425.053 170.708 424.855C170.794 424.657 170.92 424.478 171.078 424.327C171.237 424.176 171.425 424.056 171.631 423.975C171.838 423.894 172.06 423.853 172.283 423.854H194.329C194.552 423.853 194.774 423.894 194.98 423.975C195.187 424.056 195.375 424.176 195.534 424.327C195.692 424.478 195.818 424.657 195.904 424.855C195.99 425.053 196.034 425.265 196.034 425.48C196.034 425.914 195.854 426.33 195.534 426.637C195.215 426.943 194.781 427.116 194.329 427.116Z" fill="#263238" stroke="#263238" stroke-linecap="round" stroke-linejoin="round"/>
<path d="M278.505 340.369H348.302V345.194C348.302 346.575 347.73 347.901 346.712 348.878C345.693 349.855 344.312 350.404 342.872 350.404H285.032C283.303 350.404 281.646 349.745 280.424 348.572C279.202 347.4 278.516 345.81 278.516 344.152V340.421L278.505 340.369Z" fill="#263238" stroke="#263238" stroke-linecap="round" stroke-linejoin="round"/>
<path d="M348.302 345.454V340.369H298.14V344.412C298.14 345.991 298.793 347.505 299.955 348.623C301.118 349.74 302.695 350.37 304.341 350.372H343.176C344.535 350.372 345.839 349.854 346.801 348.932C347.762 348.009 348.302 346.759 348.302 345.454Z" fill="#263238" stroke="#263238" stroke-linecap="round" stroke-linejoin="round"/>
<path d="M326.821 364.096H298.053C297.056 364.099 296.084 363.798 295.277 363.236C294.471 362.674 293.872 361.88 293.568 360.97L290.136 350.414H334.727L331.295 360.97C330.993 361.879 330.396 362.673 329.591 363.235C328.787 363.797 327.816 364.099 326.821 364.096Z" fill="#263238" stroke="#263238" stroke-linecap="round" stroke-linejoin="round"/>
<path d="M331.295 360.928L334.727 350.372H307.827L311.258 360.928C311.564 361.838 312.164 362.631 312.97 363.192C313.776 363.754 314.747 364.056 315.744 364.054H326.821C327.816 364.057 328.787 363.755 329.591 363.193C330.396 362.631 330.993 361.838 331.295 360.928Z" fill="#263238" stroke="#263238" stroke-linecap="round" stroke-linejoin="round"/>
<path d="M301.039 364.325L291.776 374.078V377.933C291.774 378.435 291.876 378.932 292.075 379.396C292.274 379.86 292.567 380.282 292.936 380.637C293.305 380.992 293.744 381.274 294.227 381.466C294.71 381.659 295.227 381.758 295.75 381.758H333.402C334.459 381.758 335.473 381.355 336.22 380.637C336.968 379.92 337.388 378.948 337.388 377.933V373.151L326.81 364.085L301.039 364.325Z" fill="#263238" stroke="#263238" stroke-linecap="round" stroke-linejoin="round"/>
<path d="M291.776 374.088H337.398" stroke="#263238" stroke-linecap="round" stroke-linejoin="round"/>
<path d="M310.248 392.23L313.887 426.647H324.312L326.973 392.459L310.248 392.23Z" fill="#263238" stroke="#263238" stroke-linecap="round" stroke-linejoin="round"/>
<path d="M302.017 392.23L305.644 426.647H317.731L318.741 392.459L302.017 392.23Z" fill="#263238" stroke="#263238" stroke-linecap="round" stroke-linejoin="round"/>
<path d="M305.644 426.647L307.099 436.41H323.096L324.312 426.647H305.644Z" fill="#263238" stroke="#263238" stroke-linecap="round" stroke-linejoin="round"/>
<path d="M310.01 436.483L312.192 444.09H317.525L320.435 436.483H310.01Z" fill="#263238" stroke="#263238" stroke-linecap="round" stroke-linejoin="round"/>
<path d="M318.687 454.468C321.422 454.468 323.639 452.341 323.639 449.717C323.639 447.093 321.422 444.965 318.687 444.965C315.952 444.965 313.735 447.093 313.735 449.717C313.735 452.341 315.952 454.468 318.687 454.468Z" fill="#263238" stroke="#263238" stroke-linecap="round" stroke-linejoin="round"/>
<path d="M313.669 444.204L317.742 449.842C317.841 449.981 317.968 450.1 318.115 450.192C318.263 450.283 318.428 450.346 318.602 450.375C318.775 450.404 318.952 450.399 319.124 450.362C319.295 450.324 319.457 450.253 319.599 450.154C319.745 450.054 319.869 449.927 319.962 449.78C320.056 449.633 320.117 449.469 320.142 449.298C320.168 449.128 320.157 448.954 320.11 448.788C320.063 448.622 319.982 448.466 319.87 448.331L316.46 444.163L313.669 444.204Z" fill="#263238" stroke="#263238" stroke-linecap="round" stroke-linejoin="round"/>
<path d="M326.245 427.116H304.199C303.747 427.116 303.314 426.943 302.994 426.637C302.674 426.33 302.494 425.914 302.494 425.48C302.494 425.265 302.539 425.053 302.624 424.855C302.71 424.657 302.836 424.478 302.994 424.327C303.153 424.176 303.341 424.056 303.548 423.975C303.755 423.894 303.976 423.853 304.199 423.854H326.245C326.469 423.853 326.69 423.894 326.897 423.975C327.104 424.056 327.292 424.176 327.45 424.327C327.609 424.478 327.734 424.657 327.82 424.855C327.906 425.053 327.95 425.265 327.95 425.48C327.95 425.914 327.771 426.33 327.451 426.637C327.131 426.943 326.697 427.116 326.245 427.116Z" fill="#263238" stroke="#263238" stroke-linecap="round" stroke-linejoin="round"/>
<path d="M332.794 381.768H297.651V387.864H332.794V381.768Z" fill="#263238" stroke="#263238" stroke-linecap="round" stroke-linejoin="round"/>
<path d="M331.697 393.157H298.031C297.294 393.157 296.586 392.876 296.065 392.376C295.544 391.875 295.251 391.197 295.251 390.489C295.251 389.781 295.543 389.101 296.064 388.6C296.586 388.098 297.293 387.814 298.031 387.812H331.697C332.437 387.812 333.147 388.094 333.671 388.596C334.194 389.098 334.488 389.779 334.488 390.489C334.485 391.198 334.19 391.876 333.667 392.376C333.144 392.876 332.435 393.157 331.697 393.157Z" fill="#263238" stroke="#263238" stroke-linecap="round" stroke-linejoin="round"/>
<path d="M456.12 340.13H428.09L431.555 351.3H441.709L444.967 364.596H463.038L466.296 351.3H471.324C472.788 351.3 474.213 350.847 475.387 350.008C476.561 349.169 477.421 347.988 477.84 346.642L479.86 340.13H456.12Z" fill="#263238" stroke="#263238" stroke-linecap="round" stroke-linejoin="round"/>
<path d="M431.848 364.325L422.573 374.078V377.933C422.572 378.435 422.674 378.932 422.873 379.396C423.072 379.86 423.365 380.282 423.734 380.637C424.103 380.992 424.542 381.274 425.025 381.466C425.508 381.659 426.025 381.758 426.548 381.758H464.222C464.744 381.758 465.262 381.659 465.745 381.466C466.228 381.274 466.667 380.992 467.036 380.637C467.405 380.282 467.698 379.86 467.897 379.396C468.096 378.932 468.198 378.435 468.196 377.933V373.151L457.619 364.085L431.848 364.325Z" fill="#263238" stroke="#263238" stroke-linecap="round" stroke-linejoin="round"/>
<path d="M422.573 374.088H468.196" stroke="#263238" stroke-linecap="round" stroke-linejoin="round"/>
<path d="M463.592 381.768H428.449V387.864H463.592V381.768Z" fill="#263238" stroke="#263238" stroke-linecap="round" stroke-linejoin="round"/>
<path d="M441.057 392.23L444.695 426.647H455.11L457.782 392.459L441.057 392.23Z" fill="#263238" stroke="#263238" stroke-linecap="round" stroke-linejoin="round"/>
<path d="M432.814 392.23L436.453 426.647H448.54L449.539 392.459L432.814 392.23Z" fill="#263238" stroke="#263238" stroke-linecap="round" stroke-linejoin="round"/>
<path d="M462.506 393.157H428.84C428.101 393.157 427.393 392.876 426.87 392.376C426.347 391.876 426.052 391.198 426.049 390.489C426.049 389.779 426.343 389.098 426.866 388.596C427.39 388.094 428.099 387.812 428.84 387.812H462.506C463.244 387.814 463.951 388.098 464.472 388.6C464.993 389.101 465.286 389.781 465.286 390.489C465.286 391.197 464.993 391.875 464.472 392.376C463.95 392.876 463.243 393.157 462.506 393.157Z" fill="#263238" stroke="#263238" stroke-linecap="round" stroke-linejoin="round"/>
<path d="M436.453 426.647L437.908 436.41H453.894L455.11 426.647H436.453Z" fill="#263238" stroke="#263238" stroke-linecap="round" stroke-linejoin="round"/>
<path d="M440.807 436.483L442.99 444.09H448.323L451.233 436.483H440.807Z" fill="#263238" stroke="#263238" stroke-linecap="round" stroke-linejoin="round"/>
<path d="M449.495 454.468C452.23 454.468 454.448 452.341 454.448 449.717C454.448 447.093 452.23 444.965 449.495 444.965C446.76 444.965 444.543 447.093 444.543 449.717C444.543 452.341 446.76 454.468 449.495 454.468Z" fill="#263238" stroke="#263238" stroke-linecap="round" stroke-linejoin="round"/>
<path d="M444.467 444.204L448.54 449.842C448.639 449.981 448.766 450.1 448.913 450.192C449.061 450.283 449.226 450.346 449.399 450.375C449.573 450.404 449.75 450.399 449.921 450.362C450.093 450.324 450.254 450.253 450.397 450.154C450.544 450.055 450.669 449.928 450.763 449.781C450.858 449.634 450.92 449.47 450.945 449.299C450.97 449.128 450.959 448.954 450.911 448.787C450.864 448.621 450.781 448.465 450.668 448.331L447.258 444.163L444.467 444.204Z" fill="#263238" stroke="#263238" stroke-linecap="round" stroke-linejoin="round"/>
<path d="M457.054 427.116H434.997C434.774 427.116 434.553 427.073 434.346 426.991C434.14 426.909 433.953 426.788 433.795 426.636C433.638 426.484 433.513 426.303 433.429 426.105C433.344 425.907 433.302 425.694 433.303 425.48C433.303 425.049 433.482 424.635 433.799 424.33C434.117 424.026 434.548 423.854 434.997 423.854H457.054C457.503 423.854 457.934 424.026 458.252 424.33C458.57 424.635 458.748 425.049 458.748 425.48C458.75 425.694 458.707 425.907 458.622 426.105C458.538 426.303 458.413 426.484 458.256 426.636C458.098 426.788 457.911 426.909 457.705 426.991C457.499 427.073 457.277 427.116 457.054 427.116Z" fill="#263238" stroke="#263238" stroke-linecap="round" stroke-linejoin="round"/>
<path d="M438.983 340.13H411.008L413.245 347.33C413.6 348.477 414.333 349.483 415.333 350.198C416.333 350.914 417.547 351.3 418.794 351.3H424.626L427.884 364.596H445.955L449.213 351.3H454.296C455.76 351.3 457.185 350.847 458.359 350.008C459.533 349.169 460.393 347.988 460.812 346.642L462.831 340.13H438.983Z" fill="#263238" stroke="#263238" stroke-linecap="round" stroke-linejoin="round"/>
<path d="M495.933 320.655H397.4V330.626H495.933V320.655Z" fill="#263238" stroke="#263238" stroke-linecap="round" stroke-linejoin="round"/>
<path d="M495.933 320.655H453.818V330.626H495.933V320.655Z" fill="#263238" stroke="#263238" stroke-linecap="round" stroke-linejoin="round"/>
<path d="M492.164 330.626H401.158V340.598H492.164V330.626Z" fill="#263238" stroke="#263238" stroke-linecap="round" stroke-linejoin="round"/>
<path d="M492.164 330.626H447.91V340.598H492.164V330.626Z" fill="#263238" stroke="#263238" stroke-linecap="round" stroke-linejoin="round"/>
<path d="M240.875 352.384H224.596V424.646H240.875V352.384Z" fill="#263238" stroke="#263238" stroke-linecap="round" stroke-linejoin="round"/>
<path d="M240.875 352.384H232.741V424.646H240.875V352.384Z" fill="#263238" stroke="#263238" stroke-linecap="round" stroke-linejoin="round"/>
<path d="M272.293 352.384H256.014V424.646H272.293V352.384Z" fill="#263238" stroke="#263238" stroke-linecap="round" stroke-linejoin="round"/>
<path d="M272.282 352.384H264.148V424.646H272.282V352.384Z" fill="#263238" stroke="#263238" stroke-linecap="round" stroke-linejoin="round"/>
<path d="M277.201 423.927H217.026V438.453H277.201V423.927Z" fill="#263238" stroke="#263238" stroke-linecap="round" stroke-linejoin="round"/>
<path d="M277.212 423.927H254.83V438.453H277.212V423.927Z" fill="#263238" stroke="#263238" stroke-linecap="round" stroke-linejoin="round"/>
<path d="M225.345 431.857H202.137V433.878H225.345V431.857Z" fill="#263238" stroke="#263238" stroke-linecap="round" stroke-linejoin="round"/>
<path d="M214.68 431.857H202.137V433.878H214.68V431.857Z" fill="#263238" stroke="#263238" stroke-linecap="round" stroke-linejoin="round"/>
<path d="M239.311 431.857H216.103V433.878H239.311V431.857Z" fill="#263238" stroke="#263238" stroke-linecap="round" stroke-linejoin="round"/>
<path d="M228.646 431.857H216.103V433.878H228.646V431.857Z" fill="#263238" stroke="#263238" stroke-linecap="round" stroke-linejoin="round"/>
<path d="M206.829 255.978V317.247" stroke="#878787" stroke-linecap="round" stroke-linejoin="round"/>
<path d="M165.072 312.6C165.072 312.6 172.218 314.684 173.098 315.226C173.977 315.768 176.627 319.54 176.899 319.623C177.17 319.707 164.192 313.277 164.192 313.277L165.072 312.6Z" fill="#B8B8B8" stroke="#263238" stroke-linecap="round" stroke-linejoin="round"/>
<path d="M151.703 308.067C151.703 308.067 160.055 309.849 161.217 310.068C162.379 310.287 172.674 317.539 175.704 318.852C178.734 320.165 180.276 321.165 179.852 321.478C178.571 322.416 178.766 322.186 171.631 321.478C167.765 321.092 166.321 319.852 166.321 319.852C166.321 319.852 158.198 320.519 154.017 319.623C149.835 318.727 145.665 313.611 145.665 313.611L147.294 306.494L151.703 308.067Z" fill="#B8B8B8" stroke="#263238" stroke-linecap="round" stroke-linejoin="round"/>
<path d="M157.318 313.757C157.318 313.757 167.592 318.539 172.088 320.311C174.672 321.353 168.536 323.301 166.44 322.603C164.812 322.107 163.145 321.738 161.456 321.499C158.858 321.456 156.307 320.82 154.017 319.644C150.15 317.685 147.283 312.777 147.283 312.777" fill="#B8B8B8"/>
<path d="M157.318 313.757C157.318 313.757 167.592 318.539 172.088 320.311C174.672 321.353 168.536 323.301 166.44 322.603C164.812 322.107 163.145 321.738 161.456 321.499C158.858 321.456 156.307 320.82 154.017 319.644C150.15 317.685 147.283 312.777 147.283 312.777" stroke="#263238" stroke-linecap="round" stroke-linejoin="round"/>
<path d="M150.02 305.608L145.502 316.997L134.968 314.111L140.985 301.44L150.02 305.608Z" fill="white" stroke="#263238" stroke-linecap="round" stroke-linejoin="round"/>
<path d="M142.331 299.992C142.331 299.992 137.651 314.746 136.304 315.715C134.957 316.684 120.253 315.069 120.253 315.069L123.804 291.968C123.804 291.968 142.994 297.105 142.331 299.992Z" fill="white" stroke="#263238" stroke-linecap="round" stroke-linejoin="round"/>
<path d="M142.961 424.031C142.961 424.031 132.959 442.235 132.611 443.225C132.264 444.215 142.961 450.175 145.372 450.175C147.783 450.175 147.783 448.852 150.194 449.842C152.605 450.832 156.058 453.478 159.848 454.135C163.638 454.791 173.966 453.812 175.367 452.822C176.768 451.832 174.683 450.498 171.925 448.518C169.166 446.539 162.954 443.882 160.891 441.568C158.827 439.255 155.027 433.628 155.027 433.628L159.164 425.032L142.961 424.031Z" fill="#B8B8B8" stroke="#263238" stroke-linecap="round" stroke-linejoin="round"/>
<path d="M171.925 448.518C169.166 446.528 162.954 443.882 160.891 441.568C158.828 439.255 155.027 433.628 155.027 433.628L150.889 437.64C150.889 437.64 142.994 434.316 138.432 432.357C135.728 437.307 132.796 442.777 132.611 443.267C132.275 444.257 142.961 450.217 145.372 450.217C147.783 450.217 147.783 448.894 150.194 449.884C152.605 450.873 156.058 453.52 159.848 454.177C163.638 454.833 173.966 453.854 175.367 452.864C176.768 451.874 174.683 450.498 171.925 448.518Z" fill="#263238" stroke="#263238" stroke-linecap="round" stroke-linejoin="round"/>
<path d="M175.324 424.219L175.671 440.433L176.366 451.353C176.366 451.353 181.883 453.999 184.294 453.666C186.642 453.363 189.006 453.189 191.375 453.145C192.754 453.145 206.362 454.989 210.499 454.333C214.637 453.676 221.533 451.686 220.838 449.039C220.143 446.393 207.741 444.069 201.529 441.099C197.705 439.222 194.309 436.632 191.538 433.482L192.222 417.279L175.324 424.219Z" fill="#B8B8B8" stroke="#263238" stroke-linecap="round" stroke-linejoin="round"/>
<path d="M201.529 441.099C197.705 439.222 194.309 436.632 191.538 433.482C191.538 433.482 190.159 433.482 189.811 436.463L189.464 439.443C189.464 439.443 183.947 441.756 178.777 440.766C177.615 440.547 176.605 440.339 175.671 440.151V440.433L176.366 451.353C176.366 451.353 181.883 453.999 184.294 453.666C186.642 453.363 189.006 453.189 191.375 453.145C192.754 453.145 206.362 454.989 210.499 454.333C214.637 453.676 221.533 451.686 220.838 449.039C220.143 446.393 207.741 444.069 201.529 441.099Z" fill="#263238" stroke="#263238" stroke-linecap="round" stroke-linejoin="round"/>
<path d="M196.208 355.583C194.872 352.175 182.969 352.602 174.281 353.499L175.085 349.654L107.514 363.658L158.73 369.639L139.486 427.689L161.901 427.356L192.048 380.736C192.048 380.736 198.282 360.876 196.208 355.583Z" fill="#263238" stroke="#263238" stroke-linecap="round" stroke-linejoin="round"/>
<path d="M100.129 209.911C100.129 209.911 101.715 202.909 101.389 199.564C101.063 196.219 97.273 191.655 99.4885 183.736C101.704 175.817 109.686 166.72 121.371 166.72C133.057 166.72 141.039 179.807 141.039 179.807C141.039 179.807 145.144 190.561 144.72 192.822C144.297 195.083 141.94 197.542 142.798 199.178C143.656 200.814 147.283 203.492 146.643 205.753C146.394 206.464 146.002 207.119 145.487 207.683C144.972 208.246 144.346 208.706 143.645 209.036C143.629 211.599 143.264 214.149 142.559 216.621C141.473 219.747 138.715 224.009 136.141 223.811C133.567 223.613 126.302 220.685 126.302 220.685L119.894 227.667C119.894 227.667 105.342 216.205 101.28 214.944L97.2187 213.714L100.129 209.911Z" fill="#B8B8B8" stroke="#263238" stroke-linecap="round" stroke-linejoin="round"/>
<path d="M126.324 220.706L120.09 217.768L121.056 225.885L126.324 220.706Z" fill="#263238" stroke="#263238" stroke-linecap="round" stroke-linejoin="round"/>
<path d="M138.302 198.345C138.302 198.345 136.803 201.012 133.383 199.157" stroke="#263238" stroke-linecap="round" stroke-linejoin="round"/>
<path d="M140.224 194.239C140.224 194.239 136.966 192.395 131.884 195.469" stroke="#263238" stroke-linecap="round" stroke-linejoin="round"/>
<path d="M143.004 214.35C143.004 214.35 137.021 214.548 135.305 211.067" stroke="#263238" stroke-linecap="round" stroke-linejoin="round"/>
<path d="M143.645 209.015C143.645 209.015 140.224 209.827 139.377 208.806C138.53 207.785 140.224 206.347 140.224 206.347" stroke="#263238" stroke-linecap="round" stroke-linejoin="round"/>
<path d="M121.371 166.72C109.643 166.72 101.715 175.848 99.4885 183.757C97.2622 191.665 101.074 196.261 101.389 199.585C101.394 199.609 101.394 199.634 101.389 199.658C103.139 200.251 105.039 200.299 106.819 199.793C110.24 198.563 111.521 198.751 111.521 198.751L115.8 196.907C115.8 196.907 116.235 193.01 119.058 191.77C121.882 190.53 120.98 189.519 120.34 187.873C119.699 186.226 118.624 184.59 124.401 180.693C128.745 177.723 135.913 177.14 139.062 177.025C136.011 173.18 129.636 166.72 121.371 166.72Z" fill="#263238" stroke="#263238" stroke-linecap="round" stroke-linejoin="round"/>
<path d="M114.997 198.543C114.997 198.543 109.643 193.01 106.862 195.062C104.082 197.115 105.364 201.21 106.862 202.857C108.357 204.349 110.301 205.355 112.423 205.732C113.509 205.732 115.203 204.086 115.203 204.086" fill="#B8B8B8"/>
<path d="M114.997 198.543C114.997 198.543 109.643 193.01 106.862 195.062C104.082 197.115 105.364 201.21 106.862 202.857C108.357 204.349 110.301 205.355 112.423 205.732C113.509 205.732 115.203 204.086 115.203 204.086" stroke="#263238" stroke-linecap="round" stroke-linejoin="round"/>
<path d="M123.337 229.938L118.841 234.658C118.841 234.658 114.345 226.864 107.503 223.79C102.908 221.803 98.1063 220.287 93.1788 219.268L98.9563 211.682C104.199 213.535 109.217 215.929 113.921 218.82C118.053 221.638 121.308 225.481 123.337 229.938Z" fill="white" stroke="#263238" stroke-linecap="round" stroke-linejoin="round"/>
<path d="M61.2721 329.272C61.2721 329.272 58.9046 355.322 62.6731 359.49C68.3203 365.659 87.4882 366.909 96.4368 365.742C105.385 364.575 169.199 363.012 169.199 363.012C169.199 363.012 167.581 367.305 169.611 367.305C171.642 367.305 175.302 367.701 175.302 367.701L174.846 429.815L198.738 421.479C198.738 421.479 207.111 345.413 207.111 342.683C207.111 339.953 204.678 336.827 203.049 334.878C201.42 332.93 124.575 323.947 124.575 323.947L122.088 322.332C122.088 322.332 80.2011 321.019 61.2721 329.272Z" fill="white" stroke="#263238" stroke-linecap="round" stroke-linejoin="round"/>
<path d="M91.0937 339.171C89.3094 340.435 87.6905 341.901 86.2719 343.537" stroke="#263238" stroke-linecap="round" stroke-linejoin="round"/>
<path d="M119.178 325.187C119.178 325.187 104.386 330.543 94.0259 337.17" stroke="#263238" stroke-linecap="round" stroke-linejoin="round"/>
<path d="M82.1776 342.714C80.6286 344.276 79.2663 345.999 78.116 347.851" stroke="#263238" stroke-linecap="round" stroke-linejoin="round"/>
<path d="M101.183 327.615C95.3099 331.458 89.7515 335.725 84.556 340.38" stroke="#263238" stroke-linecap="round" stroke-linejoin="round"/>
<path d="M190.517 352.54C192.027 351.613 193.395 350.487 194.579 349.195" stroke="#263238" stroke-linecap="round" stroke-linejoin="round"/>
<path d="M171.512 362.158C176.735 359.95 181.835 357.484 186.792 354.77" stroke="#263238" stroke-linecap="round" stroke-linejoin="round"/>
<path d="M176.41 356.124C180.005 352.529 184.653 347.267 185.619 343.183" stroke="#263238" stroke-linecap="round" stroke-linejoin="round"/>
<path d="M172.012 360.219C172.012 360.219 173.098 359.292 174.661 357.812" stroke="#263238" stroke-linecap="round" stroke-linejoin="round"/>
<path d="M93.1788 219.268C93.1788 219.268 74.9992 229.532 69.0153 241.431C65.3171 249.059 63.0699 257.26 62.3798 265.647C62.3798 265.647 58.3182 268.107 59.3825 272.42C60.2378 275.482 61.4472 278.442 62.988 281.246C62.988 281.246 59.3173 303.868 60.5988 306.535C61.3255 307.877 61.7684 309.343 61.902 310.849C61.902 310.849 56.9824 314.955 58.0467 317.206C58.6825 318.555 59.6294 319.749 60.816 320.696C60.816 320.696 57.558 322.541 58.0358 323.979C58.9519 325.848 60.0424 327.633 61.2938 329.314C61.2938 329.314 80.5378 326.448 92.2991 324.593C104.061 322.739 122.034 322.343 122.034 322.343C122.034 322.343 126.986 280.017 128.278 274.056C129.571 268.096 127.192 250.663 124.423 244.307C123.012 240.874 121.143 237.631 118.863 234.658C118.863 234.658 109.86 219.07 93.1788 219.268Z" fill="#263238" stroke="#263238" stroke-linecap="round" stroke-linejoin="round"/>
<path d="M120.763 232.366C120.763 232.366 125.9 228.667 126.324 230.282C126.747 231.897 125.476 237.868 123.543 237.461C121.61 237.055 120.763 232.366 120.763 232.366Z" fill="#263238" stroke="#263238" stroke-linecap="round" stroke-linejoin="round"/>
<path d="M173.945 298.21C173.945 298.21 175.628 300.638 183.219 301.982C190.81 303.326 192.483 307.911 194.166 306.838C195.849 305.765 192.298 302.399 190.213 299.45C189.581 298.585 188.745 297.876 187.773 297.38C186.801 296.884 185.721 296.615 184.62 296.595L173.945 298.21Z" fill="#B8B8B8" stroke="#263238" stroke-linecap="round" stroke-linejoin="round"/>
<path d="M165.213 286.977C165.213 286.977 176.356 286.039 177.724 286.227C179.092 286.415 196.305 291.291 198.065 292.041C199.824 292.792 204.711 295.605 205.493 297.856C206.275 300.106 208.034 307.796 207.057 307.984C206.079 308.171 204.516 308.359 203.734 307.234C202.952 306.108 199.238 300.106 199.238 300.106L192.971 296.97C192.971 296.97 197.674 301.138 198.065 302.18C198.456 303.222 202.409 308.557 200.41 308.369C198.412 308.182 195.122 303.159 195.122 303.159L188.671 299.596C188.671 299.596 180.461 299.221 176.725 298.846C172.989 298.47 165.778 296.032 165.778 296.032L165.213 286.977Z" fill="#B8B8B8" stroke="#263238" stroke-linecap="round" stroke-linejoin="round"/>
<path d="M194.394 292.979C194.394 292.979 203.201 296.168 203.788 297.147C204.374 298.126 207.307 306.337 207.307 306.337" stroke="#263238" stroke-linecap="round" stroke-linejoin="round"/>
<path d="M147.034 289.676L165.213 286.936C166.231 289.662 166.806 292.523 166.918 295.417V299.523L153.886 305.066L147.034 289.676Z" fill="white" stroke="#263238" stroke-linecap="round" stroke-linejoin="round"/>
<path d="M92.5381 233.408C92.5381 233.408 82.0582 233.2 77.5621 245.11C75.9124 249.567 75.2882 254.314 75.7325 259.025C76.1768 263.736 77.679 268.299 80.136 272.4C83.1225 277.328 91.6367 315.757 93.5698 318.831C95.5029 321.905 152.594 308.568 154.299 307.369C156.004 306.171 155.591 300.596 152.811 294.24C150.031 287.884 141.473 288.082 141.473 288.082L116.235 288.697C116.713 287.886 116.936 286.959 116.875 286.029C116.747 285.341 116.675 284.644 116.658 283.945C116.658 283.945 124.619 284.914 120.34 265.418C116.061 245.922 112.216 238.951 106.656 235.878C101.096 232.804 95.959 231.793 92.5381 233.408Z" fill="white" stroke="#263238" stroke-linecap="round" stroke-linejoin="round"/>
<path d="M112.184 284.466C112.184 284.466 100.607 290.656 104.028 290.301C107.449 289.947 113.9 286.831 113.324 287.561" stroke="#263238" stroke-linecap="round" stroke-linejoin="round"/>
<path d="M81.2437 270.441L82.0039 255.144" stroke="#263238" stroke-linecap="round" stroke-linejoin="round"/>
<path d="M116.202 282.465C117.639 277.484 117.899 272.258 116.962 267.169" stroke="#263238" stroke-linecap="round" stroke-linejoin="round"/>
<path d="M82.3948 454.75C81.8466 454.75 81.3206 454.541 80.9319 454.17C80.5432 453.799 80.3234 453.296 80.3206 452.77L79.4409 375.12H85.3379L84.4691 452.811C84.4549 453.33 84.2302 453.823 83.8427 454.185C83.4552 454.547 82.9357 454.75 82.3948 454.75Z" fill="#263238" stroke="#263238" stroke-linecap="round" stroke-linejoin="round"/>
<path d="M86.4022 454.75C85.8539 454.75 85.328 454.541 84.9393 454.17C84.5506 453.799 84.3308 453.296 84.3279 452.77L83.4591 375.12H89.3561L88.4873 452.811C88.4704 453.331 88.2432 453.824 87.854 454.186C87.4648 454.548 86.9441 454.75 86.4022 454.75Z" fill="#263238" stroke="#263238" stroke-linecap="round" stroke-linejoin="round"/>
<path d="M44.3523 454.75C43.803 454.75 43.2759 454.542 42.8855 454.171C42.4951 453.8 42.2729 453.297 42.2671 452.77L41.4092 375.12H47.2953L46.4374 452.811C46.4204 453.331 46.1933 453.824 45.8041 454.186C45.4149 454.548 44.8942 454.75 44.3523 454.75Z" fill="#263238" stroke="#263238" stroke-linecap="round" stroke-linejoin="round"/>
<path d="M126.324 454.75C125.774 454.75 125.247 454.542 124.857 454.171C124.466 453.8 124.244 453.297 124.238 452.77L123.37 375.12H129.234L128.376 452.811C128.359 453.326 128.137 453.814 127.755 454.175C127.372 454.536 126.86 454.742 126.324 454.75Z" fill="#263238" stroke="#263238" stroke-linecap="round" stroke-linejoin="round"/>
<path d="M46.2202 364.627H123.869C125.692 364.627 127.441 365.322 128.73 366.559C130.019 367.796 130.744 369.474 130.744 371.223V377.475H39.3349V371.223C39.3349 370.356 39.5131 369.497 39.8592 368.696C40.2054 367.895 40.7127 367.168 41.3522 366.555C41.9917 365.943 42.7508 365.457 43.5861 365.126C44.4214 364.795 45.3165 364.626 46.2202 364.627Z" fill="#949494" stroke="#263238" stroke-linecap="round" stroke-linejoin="round"/>
<path d="M130.733 372.765H39.3349V382.612H130.733V372.765Z" fill="#263238" stroke="#263238" stroke-linecap="round" stroke-linejoin="round"/>
<path d="M93.8195 364.627H123.804C125.627 364.627 127.376 365.322 128.665 366.559C129.954 367.796 130.678 369.473 130.678 371.223V377.475H86.9452V371.223C86.9452 369.473 87.6694 367.796 88.9586 366.559C90.2478 365.322 91.9963 364.627 93.8195 364.627Z" fill="#B8B8B8" stroke="#263238" stroke-linecap="round" stroke-linejoin="round"/>
<path d="M130.689 372.765H86.9452V382.612H130.689V372.765Z" fill="#263238" stroke="#263238" stroke-linecap="round" stroke-linejoin="round"/>
<path d="M417.35 454.468H532.509" stroke="#263238" stroke-linecap="round" stroke-linejoin="round"/>
<path d="M8.16672 454.468H408.151" stroke="#263238" stroke-linecap="round" stroke-linejoin="round"/>
</svg>
