<svg width="201" height="147" viewBox="0 0 201 147" fill="none" xmlns="http://www.w3.org/2000/svg">
<path d="M8.078 146C6.05267 146 4.57333 145.533 3.64 144.6C2.70667 143.667 2.24 142.187 2.24 140.162V133.792C2.24 131.748 2.702 130.264 3.626 129.34C4.55933 128.416 6.034 127.954 8.05 127.954H11.438C13.1553 127.954 14.434 128.313 15.274 129.032C16.114 129.741 16.576 130.885 16.66 132.462C16.688 132.714 16.6367 132.905 16.506 133.036C16.3847 133.167 16.2027 133.232 15.96 133.232C15.4933 133.232 15.2367 132.985 15.19 132.49C15.1247 131.333 14.8073 130.535 14.238 130.096C13.6687 129.648 12.7353 129.424 11.438 129.424H8.05C6.97667 129.424 6.12267 129.564 5.488 129.844C4.85333 130.115 4.396 130.572 4.116 131.216C3.84533 131.851 3.71 132.709 3.71 133.792V140.162C3.71 141.245 3.85 142.103 4.13 142.738C4.41 143.373 4.86733 143.83 5.502 144.11C6.13667 144.39 6.99533 144.53 8.078 144.53H11.438C12.7353 144.53 13.6687 144.311 14.238 143.872C14.8073 143.424 15.1247 142.621 15.19 141.464C15.2367 140.969 15.4933 140.722 15.96 140.722C16.2027 140.722 16.3847 140.792 16.506 140.932C16.6367 141.063 16.688 141.249 16.66 141.492C16.576 143.069 16.114 144.217 15.274 144.936C14.434 145.645 13.1553 146 11.438 146H8.078ZM26.6991 146C24.6738 146 23.1944 145.533 22.2611 144.6C21.3278 143.667 20.8611 142.187 20.8611 140.162V133.778C20.8611 131.734 21.3278 130.25 22.2611 129.326C23.1944 128.393 24.6644 127.935 26.6711 127.954H30.0591C32.0844 127.954 33.5591 128.421 34.4831 129.354C35.4164 130.287 35.8831 131.767 35.8831 133.792V140.162C35.8831 142.187 35.4164 143.667 34.4831 144.6C33.5591 145.533 32.0844 146 30.0591 146H26.6991ZM26.6991 144.53H30.0591C31.1324 144.53 31.9864 144.39 32.6211 144.11C33.2558 143.83 33.7131 143.373 33.9931 142.738C34.2731 142.103 34.4131 141.245 34.4131 140.162V133.792C34.4131 132.719 34.2731 131.865 33.9931 131.23C33.7131 130.595 33.2558 130.138 32.6211 129.858C31.9864 129.569 31.1324 129.424 30.0591 129.424H26.6711C25.5978 129.415 24.7438 129.55 24.1091 129.83C23.4838 130.101 23.0311 130.558 22.7511 131.202C22.4711 131.837 22.3311 132.695 22.3311 133.778V140.162C22.3311 141.245 22.4711 142.103 22.7511 142.738C23.0311 143.373 23.4884 143.83 24.1231 144.11C24.7578 144.39 25.6164 144.53 26.6991 144.53ZM45.9843 146C45.667 146 45.4383 145.832 45.2983 145.496L38.0323 129.004C37.911 128.733 37.911 128.509 38.0323 128.332C38.163 128.155 38.3403 128.043 38.5643 127.996C38.947 127.903 39.213 128.043 39.3623 128.416L46.3623 144.292H45.8443L52.8023 128.416C52.9516 128.043 53.2223 127.903 53.6143 127.996C53.857 128.043 54.0343 128.155 54.1463 128.332C54.2583 128.509 54.2583 128.733 54.1463 129.004L46.8523 145.496C46.7123 145.832 46.4743 146 46.1383 146H45.9843ZM57.9655 146C57.4708 146 57.2235 145.753 57.2235 145.258V128.696C57.2235 128.201 57.4708 127.954 57.9655 127.954H68.4515C68.9461 127.954 69.1935 128.201 69.1935 128.696C69.1935 129.181 68.9461 129.424 68.4515 129.424H58.6935V136.13H65.1475C65.6421 136.13 65.8895 136.373 65.8895 136.858C65.8895 137.353 65.6421 137.6 65.1475 137.6H58.6935V144.53H68.4515C68.9461 144.53 69.1935 144.773 69.1935 145.258C69.1935 145.753 68.9461 146 68.4515 146H57.9655ZM85.1268 146.028C84.9214 146.149 84.7348 146.191 84.5668 146.154C84.3988 146.117 84.2494 146 84.1188 145.804L79.5268 138.496H74.3888V145.258C74.3888 145.753 74.1461 146 73.6608 146C73.1661 146 72.9188 145.753 72.9188 145.258V128.696C72.9188 128.201 73.1661 127.954 73.6608 127.954H80.2128C81.8088 127.954 83.0128 128.365 83.8248 129.186C84.6461 130.007 85.0568 131.216 85.0568 132.812V133.652C85.0568 135.061 84.7348 136.167 84.0908 136.97C83.4468 137.773 82.4948 138.263 81.2348 138.44L85.3648 145.02C85.6261 145.449 85.5468 145.785 85.1268 146.028ZM74.3888 137.026H80.2128C81.3888 137.026 82.2428 136.76 82.7748 136.228C83.3161 135.687 83.5868 134.828 83.5868 133.652V132.812C83.5868 131.627 83.3161 130.768 82.7748 130.236C82.2428 129.695 81.3888 129.424 80.2128 129.424H74.3888V137.026ZM101.178 145.972C99.5071 145.972 98.2658 145.603 97.4538 144.866C96.6511 144.119 96.2218 142.948 96.1658 141.352C96.1564 141.128 96.2171 140.951 96.3478 140.82C96.4878 140.68 96.6698 140.61 96.8938 140.61C97.1178 140.61 97.2951 140.675 97.4258 140.806C97.5564 140.937 97.6311 141.114 97.6498 141.338C97.6871 142.514 97.9671 143.335 98.4898 143.802C99.0124 144.269 99.9084 144.502 101.178 144.502H105.21C106.535 144.502 107.454 144.245 107.968 143.732C108.49 143.209 108.752 142.295 108.752 140.988C108.752 139.663 108.49 138.743 107.968 138.23C107.454 137.707 106.535 137.446 105.21 137.446H101.374C99.7311 137.446 98.5271 137.063 97.7618 136.298C96.9964 135.533 96.6138 134.333 96.6138 132.7C96.6138 131.067 96.9918 129.867 97.7478 129.102C98.5131 128.337 99.7124 127.954 101.346 127.954H105.266C106.834 127.954 107.996 128.304 108.752 129.004C109.517 129.704 109.928 130.805 109.984 132.308C110.002 132.532 109.942 132.714 109.802 132.854C109.671 132.985 109.489 133.05 109.256 133.05C109.041 133.05 108.868 132.985 108.738 132.854C108.607 132.723 108.532 132.546 108.514 132.322C108.476 131.249 108.215 130.497 107.73 130.068C107.244 129.639 106.423 129.424 105.266 129.424H101.346C100.123 129.424 99.2738 129.667 98.7978 130.152C98.3218 130.628 98.0838 131.477 98.0838 132.7C98.0838 133.923 98.3218 134.777 98.7978 135.262C99.2831 135.738 100.142 135.976 101.374 135.976H105.21C106.946 135.976 108.215 136.382 109.018 137.194C109.82 137.997 110.222 139.261 110.222 140.988C110.222 142.715 109.82 143.979 109.018 144.782C108.215 145.575 106.946 145.972 105.21 145.972H101.178ZM115.825 146C115.601 146 115.419 145.935 115.279 145.804C115.148 145.664 115.083 145.482 115.083 145.258V128.696C115.083 128.472 115.148 128.295 115.279 128.164C115.419 128.024 115.601 127.954 115.825 127.954C116.049 127.954 116.226 128.024 116.357 128.164C116.488 128.295 116.553 128.472 116.553 128.696V136.116H128.299V128.696C128.299 128.472 128.364 128.295 128.495 128.164C128.626 128.024 128.803 127.954 129.027 127.954C129.251 127.954 129.428 128.024 129.559 128.164C129.699 128.295 129.769 128.472 129.769 128.696V145.258C129.769 145.482 129.699 145.664 129.559 145.804C129.428 145.935 129.251 146 129.027 146C128.803 146 128.626 145.935 128.495 145.804C128.364 145.664 128.299 145.482 128.299 145.258V137.586H116.553V145.258C116.553 145.482 116.488 145.664 116.357 145.804C116.226 145.935 116.049 146 115.825 146ZM135.758 146C135.264 146 135.016 145.753 135.016 145.258V128.696C135.016 128.201 135.264 127.954 135.758 127.954H146.244C146.739 127.954 146.986 128.201 146.986 128.696C146.986 129.181 146.739 129.424 146.244 129.424H136.486V136.13H142.94C143.435 136.13 143.682 136.373 143.682 136.858C143.682 137.353 143.435 137.6 142.94 137.6H136.486V144.53H146.244C146.739 144.53 146.986 144.773 146.986 145.258C146.986 145.753 146.739 146 146.244 146H135.758ZM151.454 146C150.959 146 150.712 145.753 150.712 145.258V128.696C150.712 128.201 150.959 127.954 151.454 127.954H161.94C162.434 127.954 162.682 128.201 162.682 128.696C162.682 129.181 162.434 129.424 161.94 129.424H152.182V136.13H158.636C159.13 136.13 159.378 136.373 159.378 136.858C159.378 137.353 159.13 137.6 158.636 137.6H152.182V144.53H161.94C162.434 144.53 162.682 144.773 162.682 145.258C162.682 145.753 162.434 146 161.94 146H151.454ZM171.741 146.014C171.517 146.014 171.335 145.949 171.195 145.818C171.064 145.687 170.999 145.51 170.999 145.286V129.41H165.049C164.825 129.41 164.643 129.345 164.503 129.214C164.372 129.083 164.307 128.906 164.307 128.682C164.307 128.458 164.372 128.281 164.503 128.15C164.643 128.01 164.825 127.94 165.049 127.94H178.433C178.657 127.94 178.834 128.01 178.965 128.15C179.096 128.281 179.161 128.458 179.161 128.682C179.161 128.906 179.096 129.083 178.965 129.214C178.834 129.345 178.657 129.41 178.433 129.41H172.469V145.286C172.469 145.501 172.399 145.678 172.259 145.818C172.128 145.949 171.956 146.014 171.741 146.014ZM186.928 145.972C185.257 145.972 184.016 145.603 183.204 144.866C182.401 144.119 181.972 142.948 181.916 141.352C181.906 141.128 181.967 140.951 182.098 140.82C182.238 140.68 182.42 140.61 182.644 140.61C182.868 140.61 183.045 140.675 183.176 140.806C183.306 140.937 183.381 141.114 183.4 141.338C183.437 142.514 183.717 143.335 184.24 143.802C184.762 144.269 185.658 144.502 186.928 144.502H190.96C192.285 144.502 193.204 144.245 193.718 143.732C194.24 143.209 194.502 142.295 194.502 140.988C194.502 139.663 194.24 138.743 193.718 138.23C193.204 137.707 192.285 137.446 190.96 137.446H187.124C185.481 137.446 184.277 137.063 183.512 136.298C182.746 135.533 182.364 134.333 182.364 132.7C182.364 131.067 182.742 129.867 183.498 129.102C184.263 128.337 185.462 127.954 187.096 127.954H191.016C192.584 127.954 193.746 128.304 194.502 129.004C195.267 129.704 195.678 130.805 195.734 132.308C195.752 132.532 195.692 132.714 195.552 132.854C195.421 132.985 195.239 133.05 195.006 133.05C194.791 133.05 194.618 132.985 194.488 132.854C194.357 132.723 194.282 132.546 194.264 132.322C194.226 131.249 193.965 130.497 193.48 130.068C192.994 129.639 192.173 129.424 191.016 129.424H187.096C185.873 129.424 185.024 129.667 184.548 130.152C184.072 130.628 183.834 131.477 183.834 132.7C183.834 133.923 184.072 134.777 184.548 135.262C185.033 135.738 185.892 135.976 187.124 135.976H190.96C192.696 135.976 193.965 136.382 194.768 137.194C195.57 137.997 195.972 139.261 195.972 140.988C195.972 142.715 195.57 143.979 194.768 144.782C193.965 145.575 192.696 145.972 190.96 145.972H186.928Z" fill="#091227"/>
<path d="M92.1986 104C94.538 104 96.2495 102.249 96.2495 100.046V3.95432C96.2495 1.75131 94.538 0 92.1986 0C89.9167 0 88.205 1.75131 88.205 3.95432V100.046C88.205 102.249 89.9167 104 92.1986 104ZM125.404 92.7018C127.686 92.7018 129.398 90.8941 129.398 88.6911V15.3089C129.398 13.1059 127.686 11.2982 125.404 11.2982C123.122 11.2982 121.353 13.1059 121.353 15.3089V88.6911C121.353 90.8941 123.122 92.7018 125.404 92.7018ZM75.6534 83.5502C77.9355 83.5502 79.647 81.7991 79.647 79.5958V24.4042C79.647 22.2009 77.9355 20.4498 75.6534 20.4498C73.314 20.4498 71.6025 22.2009 71.6025 24.4042V79.5958C71.6025 81.7991 73.314 83.5502 75.6534 83.5502ZM108.801 77.4493C111.083 77.4493 112.852 75.6979 112.852 73.4949V30.5051C112.852 28.3021 111.083 26.5508 108.801 26.5508C106.519 26.5508 104.807 28.3021 104.807 30.5051V73.4949C104.807 75.6979 106.519 77.4493 108.801 77.4493ZM142.006 67.3374C144.288 67.3374 146 65.5297 146 63.3264V40.6736C146 38.4703 144.288 36.6626 142.006 36.6626C139.667 36.6626 137.955 38.4703 137.955 40.6736V63.3264C137.955 65.5297 139.667 67.3374 142.006 67.3374ZM59.0509 62.8745C61.333 62.8745 63.0445 61.1232 63.0445 58.9202V45.0798C63.0445 42.8768 61.333 41.1255 59.0509 41.1255C56.7115 41.1255 55 42.8768 55 45.0798V58.9202C55 61.1232 56.7115 62.8745 59.0509 62.8745Z" fill="#091227"/>
</svg>
