<svg width="41" height="47" viewBox="0 0 41 47" fill="none" xmlns="http://www.w3.org/2000/svg">
<path d="M16.7598 47C17.8138 47 18.5849 46.2087 18.5849 45.213V1.78705C18.5849 0.791459 17.8138 0 16.7598 0C15.7317 0 14.9605 0.791459 14.9605 1.78705V45.213C14.9605 46.2087 15.7317 47 16.7598 47ZM31.7204 41.8941C32.7486 41.8941 33.5198 41.0771 33.5198 40.0815V6.91846C33.5198 5.92287 32.7486 5.10593 31.7204 5.10593C30.6922 5.10593 29.8953 5.92287 29.8953 6.91846V40.0815C29.8953 41.0771 30.6922 41.8941 31.7204 41.8941ZM9.30536 37.7583C10.3336 37.7583 11.1047 36.9669 11.1047 35.9712V11.0288C11.1047 10.0331 10.3336 9.24175 9.30536 9.24175C8.25137 9.24175 7.48024 10.0331 7.48024 11.0288V35.9712C7.48024 36.9669 8.25137 37.7583 9.30536 37.7583ZM24.2402 35.0011C25.2683 35.0011 26.0652 34.2096 26.0652 33.2141V13.7859C26.0652 12.7904 25.2683 11.9989 24.2402 11.9989C23.212 11.9989 22.4407 12.7904 22.4407 13.7859V33.2141C22.4407 34.2096 23.212 35.0011 24.2402 35.0011ZM39.2007 30.4313C40.2289 30.4313 41 29.6144 41 28.6187V18.3813C41 17.3856 40.2289 16.5687 39.2007 16.5687C38.1467 16.5687 37.3755 17.3856 37.3755 18.3813V28.6187C37.3755 29.6144 38.1467 30.4313 39.2007 30.4313ZM1.82512 28.4144C2.85333 28.4144 3.62447 27.623 3.62447 26.6274V20.3726C3.62447 19.377 2.85333 18.5856 1.82512 18.5856C0.771132 18.5856 0 19.377 0 20.3726V26.6274C0 27.623 0.771132 28.4144 1.82512 28.4144Z" fill="white"/>
</svg>
