<svg width="168" height="40" viewBox="0 0 168 40" fill="none" xmlns="http://www.w3.org/2000/svg">
<circle cx="20" cy="20" r="19.5" stroke="white"/>
<path fill-rule="evenodd" clip-rule="evenodd" d="M17.945 30V21.166H15V17.485H17.945V14.54C17.945 11.497 19.871 10 22.585 10C23.885 10 25.003 10.097 25.329 10.14V13.32H23.446C21.97 13.32 21.626 14.023 21.626 15.052V17.485H25.306L24.57 21.165H21.626L21.685 30" fill="white"/>
<circle cx="148" cy="20" r="19.5" stroke="white"/>
<path fill-rule="evenodd" clip-rule="evenodd" d="M143.465 9.066C144.638 9.012 145.012 9 148 9C150.988 9 151.362 9.013 152.534 9.066C153.706 9.119 154.506 9.306 155.206 9.577C155.939 9.854 156.604 10.287 157.154 10.847C157.714 11.396 158.146 12.06 158.422 12.794C158.694 13.494 158.88 14.294 158.934 15.464C158.988 16.639 159 17.013 159 20C159 22.988 158.987 23.362 158.934 24.535C158.881 25.705 158.694 26.505 158.422 27.205C158.146 27.9391 157.713 28.6042 157.154 29.154C156.604 29.714 155.939 30.146 155.206 30.422C154.506 30.694 153.706 30.88 152.536 30.934C151.362 30.988 150.988 31 148 31C145.012 31 144.638 30.987 143.465 30.934C142.295 30.881 141.495 30.694 140.795 30.422C140.061 30.146 139.396 29.7133 138.846 29.154C138.286 28.6047 137.853 27.9399 137.577 27.206C137.306 26.506 137.12 25.706 137.066 24.536C137.012 23.361 137 22.987 137 20C137 17.012 137.013 16.638 137.066 15.466C137.119 14.294 137.306 13.494 137.577 12.794C137.854 12.0601 138.287 11.3953 138.847 10.846C139.396 10.2865 140.06 9.85344 140.794 9.577C141.494 9.306 142.294 9.12 143.464 9.066H143.465ZM152.445 11.046C151.285 10.993 150.937 10.982 148 10.982C145.063 10.982 144.715 10.993 143.555 11.046C142.482 11.095 141.9 11.274 141.512 11.425C140.999 11.625 140.632 11.862 140.247 12.247C139.882 12.6021 139.601 13.0343 139.425 13.512C139.274 13.9 139.095 14.482 139.046 15.555C138.993 16.715 138.982 17.063 138.982 20C138.982 22.937 138.993 23.285 139.046 24.445C139.095 25.518 139.274 26.1 139.425 26.488C139.601 26.965 139.882 27.398 140.247 27.753C140.602 28.118 141.035 28.399 141.512 28.575C141.9 28.726 142.482 28.905 143.555 28.954C144.715 29.007 145.062 29.018 148 29.018C150.938 29.018 151.285 29.007 152.445 28.954C153.518 28.905 154.1 28.726 154.488 28.575C155.001 28.375 155.368 28.138 155.753 27.753C156.118 27.398 156.399 26.965 156.575 26.488C156.726 26.1 156.905 25.518 156.954 24.445C157.007 23.285 157.018 22.937 157.018 20C157.018 17.063 157.007 16.715 156.954 15.555C156.905 14.482 156.726 13.9 156.575 13.512C156.375 12.999 156.138 12.632 155.753 12.247C155.398 11.8821 154.966 11.6012 154.488 11.425C154.1 11.274 153.518 11.095 152.445 11.046ZM146.595 23.391C147.38 23.7176 148.253 23.7617 149.067 23.5157C149.88 23.2697 150.583 22.7489 151.056 22.0422C151.528 21.3356 151.74 20.4869 151.656 19.6411C151.572 18.7953 151.197 18.005 150.595 17.405C150.211 17.0215 149.747 16.7278 149.236 16.5451C148.725 16.3625 148.18 16.2954 147.64 16.3486C147.101 16.4019 146.579 16.5742 146.114 16.8531C145.648 17.1321 145.251 17.5107 144.949 17.9619C144.648 18.413 144.45 18.9253 144.371 19.462C144.291 19.9986 144.331 20.5463 144.489 21.0655C144.646 21.5847 144.916 22.0626 145.281 22.4647C145.645 22.8668 146.094 23.1832 146.595 23.391ZM144.002 16.002C144.527 15.477 145.15 15.0605 145.836 14.7764C146.522 14.4922 147.258 14.346 148 14.346C148.742 14.346 149.478 14.4922 150.164 14.7764C150.85 15.0605 151.473 15.477 151.998 16.002C152.523 16.527 152.939 17.1503 153.224 17.8363C153.508 18.5223 153.654 19.2575 153.654 20C153.654 20.7425 153.508 21.4777 153.224 22.1637C152.939 22.8497 152.523 23.473 151.998 23.998C150.938 25.0583 149.5 25.654 148 25.654C146.5 25.654 145.062 25.0583 144.002 23.998C142.942 22.9377 142.346 21.4995 142.346 20C142.346 18.5005 142.942 17.0623 144.002 16.002ZM154.908 15.188C155.038 15.0653 155.142 14.9177 155.214 14.754C155.286 14.5903 155.325 14.4138 155.327 14.2349C155.33 14.0561 155.297 13.8785 155.229 13.7128C155.162 13.5471 155.062 13.3965 154.936 13.27C154.809 13.1436 154.659 13.0438 154.493 12.9765C154.327 12.9093 154.15 12.876 153.971 12.8786C153.792 12.8812 153.616 12.9197 153.452 12.9917C153.288 13.0637 153.141 13.1679 153.018 13.298C152.779 13.551 152.649 13.8871 152.654 14.2349C152.659 14.5827 152.799 14.9149 153.045 15.1608C153.291 15.4068 153.623 15.5472 153.971 15.5523C154.319 15.5574 154.655 15.4267 154.908 15.188Z" fill="white"/>
<circle cx="84" cy="20" r="19.5" stroke="white"/>
<path d="M94.5 13.9999L92.25 14.3749L93.75 12.4999L91.125 13.2499C87.75 9.49987 82.5 13.6249 84 16.9999C78 16.9999 75 12.4999 75 12.4999C75 12.4999 72.75 15.8749 76.5 18.4999L74.25 17.7499C74.25 19.9999 75.75 21.4999 78.375 22.2499H75.75C77.25 25.2499 79.875 25.2499 79.875 25.2499C79.875 25.2499 77.625 27.1249 73.5 27.1249C85.875 33.1249 93.375 21.8749 92.25 15.8749L94.5 13.9999Z" fill="white"/>
</svg>
